<svg width="38" height="40" viewBox="0 0 38 40" fill="none" xmlns="http://www.w3.org/2000/svg">
<path d="M27.5293 39.9617C27.7106 39.9875 27.895 40 28.0817 40C30.4005 40 33.174 38.0444 36.3365 34.1757C37.4334 32.8342 37.3342 30.8959 36.1053 29.6661L31.7372 25.299C30.4239 23.9856 28.2872 23.9872 26.9754 25.299L25.0972 27.1771L12.8236 14.9027L14.7018 13.0253C16.0143 11.7119 16.0143 9.57601 14.7018 8.26272L10.3337 3.89543C9.10638 2.66656 7.16806 2.56658 5.82426 3.66335C1.64372 7.08143 -0.303174 10.044 0.0382232 12.4706C1.2437 21.0285 18.9714 38.7562 27.5293 39.9617ZM6.83681 4.90245C7.16259 4.63604 7.55634 4.50484 7.94928 4.50484C8.40321 4.50484 8.85633 4.68061 9.20244 5.02673L13.5705 9.39392C14.2588 10.083 14.2588 11.205 13.5705 11.894L11.1267 14.337C10.9767 14.4871 10.8923 14.6901 10.8923 14.9027C10.8923 15.1152 10.9767 15.3182 11.1267 15.4683L24.5316 28.8739C24.8316 29.174 25.3629 29.174 25.6629 28.8739L28.1067 26.4303C28.7965 25.7403 29.9177 25.7418 30.6059 26.4303L34.974 30.7974C35.6193 31.4428 35.6724 32.46 35.0974 33.1631C32.1005 36.8288 29.5544 38.6358 27.7528 38.3772C19.8323 37.2616 2.73828 20.1677 1.62264 12.2472C1.36793 10.4385 3.17108 7.89864 6.83681 4.90245Z" fill="#ECF4F9"/>
<path d="M17.9523 0C17.5102 0 17.1523 0.35786 17.1523 0.80004C17.1523 1.24222 17.5102 1.60008 17.9523 1.60008C27.6306 1.60008 35.5042 9.4736 35.5042 19.1512C35.5042 19.5933 35.862 19.9512 36.3042 19.9512C36.7464 19.9512 37.1042 19.5933 37.1042 19.1512C37.1042 8.59084 28.5127 0 17.9523 0Z" fill="#ECF4F9"/>
<path d="M29.3869 19.1511C29.3869 19.5933 29.7447 19.9511 30.1869 19.9511C30.6291 19.9511 30.9869 19.5933 30.9869 19.1511C30.9869 11.9634 25.1399 6.11646 17.9523 6.11646C17.5102 6.11646 17.1523 6.47431 17.1523 6.91639C17.1523 7.35868 17.5102 7.71643 17.9523 7.71643C24.2571 7.71643 29.3869 12.8463 29.3869 19.1511Z" fill="#ECF4F9"/>
<path d="M17.1523 13.0338C17.1523 13.476 17.5102 13.8339 17.9523 13.8339C20.8844 13.8339 23.2696 16.219 23.2696 19.1512C23.2696 19.5934 23.6274 19.9512 24.0696 19.9512C24.5118 19.9512 24.8696 19.5934 24.8696 19.1512C24.8696 15.3371 21.7665 12.2339 17.9523 12.2339C17.5102 12.2339 17.1523 12.5916 17.1523 13.0338Z" fill="#ECF4F9"/>
</svg>
