<svg width="35" height="42" viewBox="0 0 35 42" fill="none" xmlns="http://www.w3.org/2000/svg">
<path d="M33.7273 17.3636C33.7273 30.0909 17.3636 41 17.3636 41C17.3636 41 1 30.0909 1 17.3636C1 13.0237 2.72402 8.86158 5.7928 5.7928C8.86157 2.72402 13.0237 1 17.3636 1C21.7035 1 25.8657 2.72402 28.9345 5.7928C32.0032 8.86158 33.7273 13.0237 33.7273 17.3636Z" stroke="#ECF4F9" stroke-width="2" stroke-linecap="round" stroke-linejoin="round"/>
<path d="M17.3637 22.8183C20.3762 22.8183 22.8183 20.3762 22.8183 17.3637C22.8183 14.3513 20.3762 11.9092 17.3637 11.9092C14.3513 11.9092 11.9092 14.3513 11.9092 17.3637C11.9092 20.3762 14.3513 22.8183 17.3637 22.8183Z" stroke="#ECF4F9" stroke-width="2" stroke-linecap="round" stroke-linejoin="round"/>
</svg>
