<svg width="18" height="18" viewBox="0 0 18 18" fill="none" xmlns="http://www.w3.org/2000/svg">
<path fill-rule="evenodd" clip-rule="evenodd" d="M8.98936 0.48877C13.6859 0.48877 17.49 4.29278 17.49 8.98936C17.49 13.6859 13.6859 17.49 8.98936 17.49C4.29278 17.49 0.48877 13.6859 0.48877 8.98936C0.48877 4.29278 4.29278 0.48877 8.98936 0.48877ZM7.16173 10.4557L13.0059 4.61156C13.2822 4.33529 13.7072 4.33529 13.9622 4.61156L14.7273 5.35536C14.9823 5.63163 14.9823 6.05666 14.7273 6.31167L7.65052 13.3884C7.37425 13.6434 6.94922 13.6434 6.6942 13.3884L3.27271 9.96693C3.0177 9.71191 3.0177 9.28688 3.27271 9.01061L4.03777 8.26681C4.29278 7.99054 4.71781 7.99054 4.99408 8.26681L7.16173 10.4557Z" fill="#0063A2"/>
</svg>
