<svg width="31" height="30" viewBox="0 0 31 30" fill="none" xmlns="http://www.w3.org/2000/svg">
<path d="M3.20887 30C2.10105 28.1431 1.27973 26.2863 0.744917 24.4294C0.248305 22.5338 0 20.6576 0 18.8008C0 15.3191 0.840419 11.9923 2.52126 8.82011C4.2403 5.60928 6.62785 2.66925 9.68392 0L12.8355 1.97292C13.1411 2.16634 13.3321 2.37911 13.4085 2.61122C13.5231 2.84333 13.5804 3.07543 13.5804 3.30754C13.5804 3.84913 13.3894 4.31335 13.0074 4.70019C12.3962 5.47389 11.8041 6.28627 11.2311 7.13733C10.658 7.9884 10.1423 8.89748 9.68392 9.8646C9.22551 10.793 8.8626 11.7795 8.59519 12.824C8.32779 13.8685 8.19409 14.971 8.19409 16.1315C8.19409 17.3694 8.36599 18.646 8.70979 19.9613C9.0918 21.2766 9.72212 22.6692 10.6007 24.1393C10.8681 24.5648 11.0018 25.0097 11.0018 25.4739C11.0018 26.4023 10.4861 27.06 9.45471 27.4468L3.20887 30ZM20.6285 30C19.5206 28.1431 18.6993 26.2863 18.1645 24.4294C17.6679 22.5338 17.4196 20.6576 17.4196 18.8008C17.4196 15.3191 18.26 11.9923 19.9408 8.82011C21.6599 5.60928 24.0474 2.66925 27.1035 0L30.2551 1.97292C30.5607 2.16634 30.7517 2.37911 30.8281 2.61122C30.9427 2.84333 31 3.07543 31 3.30754C31 3.84913 30.809 4.31335 30.427 4.70019C29.8158 5.47389 29.2237 6.28627 28.6506 7.13733C28.0776 7.9884 27.5619 8.89748 27.1035 9.8646C26.6451 10.793 26.2822 11.7795 26.0148 12.824C25.7474 13.8685 25.6137 14.971 25.6137 16.1315C25.6137 17.3694 25.7856 18.646 26.1294 19.9613C26.5114 21.2766 27.1417 22.6692 28.0203 24.1393C28.2877 24.5648 28.4214 25.0097 28.4214 25.4739C28.4214 26.4023 27.9057 27.06 26.8743 27.4468L20.6285 30Z" fill="#0063A2"/>
</svg>
