<svg width="24" height="24" viewBox="0 0 24 24" fill="none" xmlns="http://www.w3.org/2000/svg">
<rect width="24" height="24" rx="12" fill="#ECF4F9"/>
<path d="M12 18.8414L8.28767 15.129C7.55345 14.3948 7.05344 13.4593 6.85087 12.4409C6.64831 11.4225 6.75228 10.367 7.14964 9.40764C7.547 8.44834 8.21991 7.6284 9.08327 7.05153C9.94662 6.47465 10.9617 6.16675 12 6.16675C13.0384 6.16675 14.0534 6.47465 14.9167 7.05153C15.7801 7.6284 16.453 8.44834 16.8504 9.40764C17.2477 10.367 17.3517 11.4225 17.1491 12.4409C16.9466 13.4593 16.4466 14.3948 15.7123 15.129L12 18.8414ZM14.8875 14.3042C15.4585 13.7331 15.8474 13.0055 16.0049 12.2135C16.1624 11.4214 16.0815 10.6004 15.7725 9.85428C15.4634 9.10817 14.94 8.47046 14.2685 8.0218C13.597 7.57314 12.8076 7.33366 12 7.33366C11.1924 7.33366 10.403 7.57314 9.73147 8.0218C9.05998 8.47046 8.5366 9.10817 8.22753 9.85428C7.91846 10.6004 7.83758 11.4214 7.9951 12.2135C8.15262 13.0055 8.54148 13.7331 9.1125 14.3042L12 17.1917L14.8875 14.3042ZM12 12.5834C11.6906 12.5834 11.3938 12.4605 11.175 12.2417C10.9563 12.0229 10.8333 11.7261 10.8333 11.4167C10.8333 11.1073 10.9563 10.8105 11.175 10.5917C11.3938 10.373 11.6906 10.25 12 10.25C12.3094 10.25 12.6062 10.373 12.825 10.5917C13.0438 10.8105 13.1667 11.1073 13.1667 11.4167C13.1667 11.7261 13.0438 12.0229 12.825 12.2417C12.6062 12.4605 12.3094 12.5834 12 12.5834Z" fill="#0063A2"/>
</svg>
