<svg width="24" height="24" viewBox="0 0 24 24" fill="none" xmlns="http://www.w3.org/2000/svg">
<rect width="24" height="24" rx="12" fill="#ECF4F9"/>
<path d="M6.75033 6.75H17.2503C17.405 6.75 17.5534 6.81146 17.6628 6.92085C17.7722 7.03025 17.8337 7.17862 17.8337 7.33333V16.6667C17.8337 16.8214 17.7722 16.9697 17.6628 17.0791C17.5534 17.1885 17.405 17.25 17.2503 17.25H6.75033C6.59562 17.25 6.44724 17.1885 6.33785 17.0791C6.22845 16.9697 6.16699 16.8214 6.16699 16.6667V7.33333C6.16699 7.17862 6.22845 7.03025 6.33785 6.92085C6.44724 6.81146 6.59562 6.75 6.75033 6.75ZM16.667 9.22217L12.0423 13.3638L7.33366 9.20933V16.0833H16.667V9.22217ZM7.63174 7.91667L12.0359 11.8028L16.3765 7.91667H7.63174Z" fill="#0063A2"/>
</svg>
