<svg width="24" height="24" viewBox="0 0 24 24" fill="none" xmlns="http://www.w3.org/2000/svg">
<rect width="24" height="24" rx="12" fill="#ECF4F9"/>
<path d="M10.4635 11.2312C11.0109 12.1928 11.8072 12.9891 12.7688 13.5365L13.2845 12.8143C13.3674 12.6982 13.49 12.6165 13.6291 12.5847C13.7682 12.5529 13.9142 12.5731 14.0393 12.6417C14.8644 13.0925 15.7755 13.3637 16.7127 13.4373C16.859 13.4489 16.9956 13.5152 17.0952 13.623C17.1947 13.7308 17.25 13.8722 17.25 14.0189V16.6217C17.25 16.7662 17.1965 16.9055 17.0997 17.0127C17.0029 17.1199 16.8698 17.1874 16.7262 17.2022C16.417 17.2342 16.1055 17.25 15.7917 17.25C10.7983 17.25 6.75 13.2017 6.75 8.20833C6.75 7.8945 6.76575 7.583 6.79783 7.27383C6.81257 7.13016 6.88007 6.99705 6.98729 6.90029C7.09451 6.80352 7.23382 6.74997 7.37825 6.75H9.98108C10.1278 6.74998 10.2692 6.80527 10.377 6.90485C10.4848 7.00442 10.5511 7.14096 10.5627 7.28725C10.6363 8.22455 10.9075 9.13565 11.3583 9.96067C11.4269 10.0858 11.4471 10.2318 11.4153 10.3709C11.3835 10.51 11.3018 10.6326 11.1857 10.7155L10.4635 11.2312ZM8.99233 10.8479L10.1007 10.0563C9.78612 9.37739 9.57062 8.65682 9.46075 7.91667H7.9225C7.919 8.0135 7.91725 8.11092 7.91725 8.20833C7.91667 12.5577 11.4423 16.0833 15.7917 16.0833C15.8891 16.0833 15.9865 16.0816 16.0833 16.0775V14.5392C15.3432 14.4294 14.6226 14.2139 13.9437 13.8993L13.1521 15.0077C12.8334 14.8838 12.5238 14.7376 12.2257 14.5702L12.1919 14.5509C11.0478 13.8998 10.1002 12.9522 9.44908 11.8081L9.42983 11.7742C9.26236 11.4762 9.11617 11.1666 8.99233 10.8479Z" fill="#0063A2"/>
</svg>
