<svg width="24" height="24" viewBox="0 0 24 24" fill="none" xmlns="http://www.w3.org/2000/svg">
<rect width="24" height="24.0005" rx="12" fill="#ECF4F9"/>
<path d="M6.79014 5.00049H13.6373C13.7862 5.00049 13.9196 5.0674 14.0094 5.1724L17.5566 8.78399C17.6498 8.87874 17.6962 9.0023 17.6962 9.12538L17.6977 12C17.6977 12.2696 17.4789 12.4884 17.2093 12.4884H6.79014C6.52055 12.4884 6.30176 12.2696 6.30176 12V5.48838C6.30176 5.2188 6.52055 5 6.79014 5V5.00049ZM13.4346 5.97726H7.27852V11.5121H16.7209V9.32366L13.4346 5.97726ZM17.6977 17.2101V18.5121C17.6977 18.7817 17.4789 19.0005 17.2093 19.0005H6.79014C6.52055 19.0005 6.30176 18.7817 6.30176 18.5121V17.2101C6.30176 16.9405 6.52055 16.7217 6.79014 16.7217H17.2093C17.4789 16.7217 17.6977 16.9405 17.6977 17.2101ZM16.7209 18.0237V17.6985H7.27852V18.0237H16.7209Z" fill="#0063A2"/>
<path d="M18.5116 17.703H5.48838C5.2188 17.703 5 17.4842 5 17.2146V12.005C5 11.7354 5.2188 11.5166 5.48838 11.5166H18.5116C18.7812 11.5166 19 11.7354 19 12.005V17.2146C19 17.4842 18.7812 17.703 18.5116 17.703ZM5.97677 16.7262H18.0232V12.4934H5.97677V16.7262Z" fill="#0063A2"/>
</svg>
