<svg width="24" height="24" viewBox="0 0 24 24" fill="none" xmlns="http://www.w3.org/2000/svg">
<rect width="24" height="24" rx="12" fill="#ECF4F9"/>
<path d="M12.0003 17.8334C8.77858 17.8334 6.16699 15.2218 6.16699 12.0001C6.16699 8.77833 8.77858 6.16675 12.0003 6.16675C15.2221 6.16675 17.8337 8.77833 17.8337 12.0001C17.8337 15.2218 15.2221 17.8334 12.0003 17.8334ZM12.0003 16.6667C13.238 16.6667 14.425 16.1751 15.3002 15.2999C16.1753 14.4247 16.667 13.2378 16.667 12.0001C16.667 10.7624 16.1753 9.57542 15.3002 8.70025C14.425 7.82508 13.238 7.33341 12.0003 7.33341C10.7626 7.33341 9.57566 7.82508 8.70049 8.70025C7.82532 9.57542 7.33366 10.7624 7.33366 12.0001C7.33366 13.2378 7.82532 14.4247 8.70049 15.2999C9.57566 16.1751 10.7626 16.6667 12.0003 16.6667ZM12.5837 12.0001H14.917V13.1667H11.417V9.08342H12.5837V12.0001Z" fill="#0063A2"/>
</svg>
