<svg width="11" height="12" viewBox="0 0 11 12" fill="none" xmlns="http://www.w3.org/2000/svg">
<path d="M5.5 11.8528L2.05284 8.40562C1.37106 7.72384 0.906768 6.85519 0.71867 5.90954C0.530571 4.96388 0.627116 3.98369 0.996095 3.0929C1.36507 2.20211 1.98992 1.44075 2.7916 0.905078C3.59329 0.369408 4.53582 0.0834961 5.5 0.0834961C6.46418 0.0834961 7.40671 0.369408 8.2084 0.905078C9.01009 1.44075 9.63493 2.20211 10.0039 3.0929C10.3729 3.98369 10.4694 4.96388 10.2813 5.90954C10.0932 6.85519 9.62894 7.72384 8.94717 8.40562L5.5 11.8528ZM8.18125 7.6397C8.71149 7.10941 9.07257 6.4338 9.21884 5.6983C9.36511 4.9628 9.29 4.20044 9.00301 3.50763C8.71601 2.81482 8.23003 2.22266 7.6065 1.80604C6.98297 1.38943 6.24991 1.16706 5.5 1.16706C4.7501 1.16706 4.01703 1.38943 3.39351 1.80604C2.76998 2.22266 2.28399 2.81482 1.997 3.50763C1.71 4.20044 1.63489 4.9628 1.78116 5.6983C1.92743 6.4338 2.28852 7.10941 2.81875 7.6397L5.5 10.321L8.18125 7.6397V7.6397ZM5.5 6.04179C5.21268 6.04179 4.93713 5.92765 4.73397 5.72449C4.53081 5.52132 4.41667 5.24577 4.41667 4.95845C4.41667 4.67114 4.53081 4.39559 4.73397 4.19242C4.93713 3.98926 5.21268 3.87512 5.5 3.87512C5.78732 3.87512 6.06287 3.98926 6.26603 4.19242C6.4692 4.39559 6.58333 4.67114 6.58333 4.95845C6.58333 5.24577 6.4692 5.52132 6.26603 5.72449C6.06287 5.92765 5.78732 6.04179 5.5 6.04179Z" fill="white"/>
</svg>
