<svg width="11" height="10" viewBox="0 0 11 10" fill="none" xmlns="http://www.w3.org/2000/svg">
<path d="M0.625163 0.125H10.3752C10.5188 0.125 10.6566 0.182068 10.7582 0.28365C10.8598 0.385233 10.9168 0.523008 10.9168 0.666667V9.33333C10.9168 9.47699 10.8598 9.61477 10.7582 9.71635C10.6566 9.81793 10.5188 9.875 10.3752 9.875H0.625163C0.481504 9.875 0.343729 9.81793 0.242147 9.71635C0.140564 9.61477 0.0834961 9.47699 0.0834961 9.33333V0.666667C0.0834961 0.523008 0.140564 0.385233 0.242147 0.28365C0.343729 0.182068 0.481504 0.125 0.625163 0.125V0.125ZM9.8335 2.42058L5.53916 6.26642L1.16683 2.40867V8.79167H9.8335V2.42058ZM1.44362 1.20833L5.5332 4.81692L9.56375 1.20833H1.44362Z" fill="white"/>
</svg>
