<svg width="11" height="10" viewBox="0 0 11 10" fill="none" xmlns="http://www.w3.org/2000/svg">
<path d="M4.07325 4.28608C4.58152 5.17901 5.32099 5.91848 6.21392 6.42675L6.69275 5.75617C6.76975 5.64834 6.88361 5.57248 7.01277 5.54293C7.14193 5.51339 7.27744 5.53221 7.39367 5.59583C8.15976 6.0145 9.00578 6.2663 9.87613 6.33467C10.012 6.34543 10.1388 6.407 10.2312 6.50709C10.3237 6.60718 10.375 6.73845 10.375 6.87471V9.29163C10.375 9.42574 10.3253 9.55509 10.2354 9.65466C10.1456 9.75422 10.022 9.8169 9.88858 9.83058C9.6015 9.86037 9.31225 9.875 9.02083 9.875C4.38417 9.875 0.625 6.11583 0.625 1.47917C0.625 1.18775 0.639625 0.8985 0.669417 0.611417C0.683096 0.478003 0.745783 0.354407 0.845344 0.264552C0.944906 0.174696 1.07426 0.124971 1.20838 0.125H3.62529C3.76155 0.124983 3.89282 0.176324 3.99291 0.268786C4.093 0.361248 4.15457 0.488038 4.16533 0.623875C4.2337 1.49422 4.4855 2.34024 4.90417 3.10633C4.96779 3.22256 4.98662 3.35807 4.95707 3.48723C4.92752 3.61639 4.85166 3.73025 4.74383 3.80725L4.07325 4.28608V4.28608ZM2.70717 3.93021L3.73633 3.19517C3.44426 2.56472 3.24415 1.89562 3.14213 1.20833H1.71375C1.7105 1.29825 1.70888 1.38871 1.70888 1.47917C1.70833 5.51783 4.98217 8.79167 9.02083 8.79167C9.11129 8.79167 9.20175 8.79004 9.29167 8.78625V7.35788C8.60438 7.25585 7.93528 7.05574 7.30483 6.76367L6.56979 7.79283C6.27386 7.67785 5.98642 7.54209 5.70963 7.38658L5.67821 7.36871C4.61577 6.76406 3.73594 5.88423 3.13129 4.82179L3.11342 4.79038C2.95791 4.51358 2.82215 4.22614 2.70717 3.93021V3.93021Z" fill="white"/>
</svg>
