<svg width="154" height="108" viewBox="0 0 154 108" fill="none" xmlns="http://www.w3.org/2000/svg">
<g clip-path="url(#clip0_1_433)">
<g style="mix-blend-mode:multiply">
<g style="mix-blend-mode:multiply">
<path d="M89.6922 44.551C89.3139 45.9303 88.41 47.1089 87.1724 47.837C85.9347 48.565 84.4604 48.7852 83.0622 48.451L64.4276 44.2C63.0371 43.8154 61.851 42.9093 61.1192 41.6725C60.3875 40.4358 60.1671 38.965 60.5045 37.57L65.016 19.045C65.3763 17.6546 66.2768 16.4631 67.5197 15.732C68.7627 15.0008 70.2467 14.7897 71.646 15.145L90.2806 19.591C91.6711 19.9756 92.8572 20.8817 93.589 22.1184C94.3207 23.3551 94.5411 24.8259 94.2037 26.221L89.6922 44.551Z" fill="#09C08E"/>
</g>
</g>
<g style="mix-blend-mode:multiply">
<g style="mix-blend-mode:multiply">
<path d="M52.0016 14.3966L34.1167 21.076C31.2568 22.1441 29.8094 25.3146 30.8838 28.1576L37.6027 45.9374C38.6771 48.7804 41.8664 50.2193 44.7263 49.1512L62.6112 42.4718C65.471 41.4037 66.9184 38.2332 65.8441 35.3902L59.1251 17.6104C58.0508 14.7674 54.8614 13.3285 52.0016 14.3966Z" fill="#FFD751"/>
</g>
</g>
<g style="mix-blend-mode:multiply">
<g style="mix-blend-mode:multiply">
<path d="M110.641 48.334C110.21 48.9316 109.663 49.4371 109.032 49.8207C108.401 50.2043 107.699 50.4581 106.967 50.5672C106.236 50.6763 105.489 50.6384 104.773 50.4558C104.056 50.2732 103.384 49.9495 102.795 49.504L87.3776 38.194C86.775 37.7659 86.2658 37.2211 85.8805 36.5924C85.4952 35.9636 85.2417 35.2638 85.1355 34.5352C85.0292 33.8066 85.0722 33.0641 85.262 32.3524C85.4518 31.6407 85.7845 30.9746 86.2399 30.394L97.5384 15.223C97.973 14.6298 98.5218 14.1283 99.153 13.7478C99.7842 13.3672 100.485 13.1152 101.215 13.0063C101.945 12.8975 102.69 12.9339 103.406 13.1136C104.121 13.2933 104.794 13.6126 105.385 14.053L120.802 25.363C121.395 25.7983 121.895 26.3454 122.275 26.973C122.655 27.6006 122.906 28.2964 123.016 29.0207C123.125 29.745 123.09 30.4836 122.912 31.1943C122.734 31.9051 122.417 32.574 121.979 33.163L110.641 48.334Z" fill="#0063A2"/>
</g>
</g>
</g>
<path d="M8.86605 84.5916V87.3489H0V72.4698H3.41313V84.5916H8.86605Z" fill="#333333"/>
<path d="M16.4252 80.7825C16.4252 80.5306 16.3915 80.2855 16.3242 80.0472C16.2636 79.8089 16.1593 79.5979 16.0112 79.414C15.8698 79.2234 15.6813 79.0702 15.4457 78.9545C15.2101 78.8388 14.924 78.7809 14.5874 78.7809C13.9949 78.7809 13.5304 78.9545 13.1938 79.3017C12.8572 79.6421 12.6351 80.1357 12.5274 80.7825H16.4252ZM12.487 82.6207C12.588 83.5057 12.8539 84.1491 13.2847 84.5508C13.7156 84.9456 14.271 85.1431 14.9509 85.1431C15.3144 85.1431 15.6275 85.0988 15.89 85.0103C16.1526 84.9218 16.3848 84.8231 16.5868 84.7142C16.7955 84.6052 16.984 84.5065 17.1523 84.418C17.3273 84.3295 17.5091 84.2853 17.6976 84.2853C17.9466 84.2853 18.1351 84.3772 18.263 84.561L19.1719 85.6945C18.8487 86.069 18.4987 86.3753 18.1217 86.6136C17.7514 86.8451 17.3677 87.0289 16.9705 87.1651C16.58 87.2944 16.1862 87.3829 15.789 87.4306C15.3986 87.4851 15.0249 87.5123 14.6682 87.5123C13.9344 87.5123 13.2443 87.3932 12.5981 87.1549C11.9585 86.9098 11.3964 86.549 10.9117 86.0724C10.4337 85.5958 10.0534 85.0035 9.77061 84.2955C9.4946 83.5874 9.3566 82.7636 9.3566 81.8241C9.3566 81.1161 9.47441 80.4455 9.71003 79.8123C9.95238 79.1792 10.2957 78.6243 10.74 78.1477C11.1911 77.6712 11.733 77.2933 12.3658 77.0142C13.0053 76.735 13.7257 76.5955 14.5268 76.5955C15.2202 76.5955 15.853 76.7044 16.4252 76.9223C17.0042 77.1401 17.499 77.4567 17.9096 77.872C18.327 78.2873 18.6501 78.7979 18.879 79.4038C19.1146 80.0029 19.2325 80.6838 19.2325 81.4463C19.2325 81.6846 19.2224 81.8786 19.2022 82.0284C19.182 82.1781 19.1449 82.2973 19.0911 82.3858C19.0372 82.4743 18.9632 82.5356 18.8689 82.5696C18.7814 82.6036 18.667 82.6207 18.5256 82.6207H12.487Z" fill="#333333"/>
<path d="M26.2013 83.0394C25.5753 83.0666 25.0603 83.1211 24.6563 83.2028C24.2524 83.2845 23.9327 83.3866 23.697 83.5091C23.4614 83.6317 23.2965 83.7712 23.2022 83.9278C23.1147 84.0844 23.071 84.2546 23.071 84.4384C23.071 84.7993 23.1686 85.0546 23.3638 85.2043C23.559 85.3473 23.8451 85.4188 24.2221 85.4188C24.6261 85.4188 24.9795 85.3473 25.2824 85.2043C25.5854 85.0614 25.8917 84.8299 26.2013 84.5099V83.0394ZM20.5667 78.2294C21.1995 77.6644 21.8996 77.2457 22.667 76.9733C23.4412 76.6942 24.2693 76.5546 25.1511 76.5546C25.784 76.5546 26.3528 76.6602 26.8577 76.8712C27.3693 77.0755 27.8002 77.3648 28.1503 77.7392C28.5071 78.1069 28.7797 78.546 28.9682 79.0566C29.1567 79.5672 29.2509 80.1255 29.2509 80.7314V87.3489H27.817C27.5208 87.3489 27.2953 87.3081 27.1405 87.2264C26.9924 87.1447 26.8678 86.9745 26.7668 86.7157L26.5447 86.1337C26.2821 86.3583 26.0297 86.5558 25.7873 86.726C25.545 86.8962 25.2925 87.0425 25.03 87.1651C24.7742 87.2808 24.4981 87.3659 24.2019 87.4204C23.9125 87.4817 23.5893 87.5123 23.2325 87.5123C22.7546 87.5123 22.3203 87.451 21.9299 87.3285C21.5394 87.1991 21.2062 87.0119 20.9302 86.7668C20.6609 86.5217 20.4522 86.2188 20.3041 85.8579C20.156 85.4903 20.0819 85.0682 20.0819 84.5916C20.0819 84.2104 20.1762 83.8257 20.3647 83.4376C20.5532 83.0428 20.8797 82.6853 21.3442 82.3654C21.8087 82.0386 22.4348 81.7662 23.2224 81.5484C24.0101 81.3305 25.003 81.208 26.2013 81.1807V80.7314C26.2013 80.1119 26.0734 79.6659 25.8176 79.3936C25.5685 79.1145 25.2117 78.9749 24.7472 78.9749C24.377 78.9749 24.074 79.0158 23.8384 79.0975C23.6028 79.1792 23.3907 79.2711 23.2022 79.3732C23.0205 79.4753 22.8421 79.5672 22.667 79.6489C22.492 79.7306 22.2833 79.7715 22.041 79.7715C21.8255 79.7715 21.6438 79.717 21.4957 79.6081C21.3476 79.4991 21.2264 79.3698 21.1321 79.22L20.5667 78.2294Z" fill="#333333"/>
<path d="M34.1803 78.3928C34.5035 77.8209 34.8737 77.3716 35.2911 77.0448C35.7152 76.718 36.2 76.5546 36.7452 76.5546C37.2165 76.5546 37.6002 76.667 37.8964 76.8916L37.6945 79.22C37.6608 79.3698 37.6036 79.4719 37.5228 79.5264C37.4487 79.5808 37.3444 79.6081 37.2098 79.6081C37.1559 79.6081 37.0852 79.6047 36.9977 79.5979C36.9102 79.5911 36.8193 79.5842 36.725 79.5774C36.6308 79.5638 36.5332 79.5536 36.4322 79.5468C36.338 79.5332 36.2504 79.5264 36.1697 79.5264C35.7119 79.5264 35.345 79.6489 35.069 79.894C34.7997 80.1391 34.5708 80.4795 34.3823 80.9152V87.3489H31.2519V76.7589H33.11C33.2648 76.7589 33.3927 76.7725 33.4937 76.7997C33.6014 76.827 33.6889 76.8712 33.7562 76.9325C33.8303 76.9869 33.8841 77.0618 33.9178 77.1572C33.9582 77.2525 33.9919 77.3682 34.0188 77.5044L34.1803 78.3928Z" fill="#333333"/>
<path d="M41.8515 77.9026C42.0535 77.712 42.2622 77.535 42.4776 77.3716C42.693 77.2082 42.9219 77.072 43.1643 76.9631C43.4133 76.8474 43.6793 76.7589 43.962 76.6976C44.2515 76.6295 44.5645 76.5955 44.9011 76.5955C45.4733 76.5955 45.9782 76.6976 46.4158 76.9018C46.8601 77.0993 47.2338 77.3784 47.5367 77.7392C47.8396 78.0933 48.0685 78.5188 48.2234 79.0158C48.3782 79.506 48.4556 80.0404 48.4556 80.6191V87.3489H45.3252V80.6191C45.3252 80.1017 45.2074 79.7 44.9718 79.414C44.7362 79.1213 44.3895 78.9749 43.9317 78.9749C43.5884 78.9749 43.2652 79.0498 42.9623 79.1996C42.6661 79.3426 42.3766 79.54 42.0939 79.7919V87.3489H38.9635V76.7589H40.9023C41.2928 76.7589 41.5486 76.9359 41.6698 77.2899L41.8515 77.9026Z" fill="#333333"/>
<path d="M53.6826 76.7589V87.3489H50.5522V76.7589H53.6826ZM54.0057 73.8586C54.0057 74.1105 53.9553 74.3488 53.8543 74.5735C53.7533 74.7913 53.6153 74.9854 53.4403 75.1556C53.2652 75.319 53.0599 75.4517 52.8243 75.5538C52.5954 75.6492 52.3497 75.6968 52.0871 75.6968C51.8313 75.6968 51.5923 75.6492 51.3702 75.5538C51.148 75.4517 50.9494 75.319 50.7744 75.1556C50.6061 74.9854 50.4714 74.7913 50.3705 74.5735C50.2762 74.3488 50.2291 74.1105 50.2291 73.8586C50.2291 73.5999 50.2762 73.3582 50.3705 73.1336C50.4714 72.9089 50.6061 72.7114 50.7744 72.5412C50.9494 72.371 51.148 72.2383 51.3702 72.143C51.5923 72.0477 51.8313 72 52.0871 72C52.3497 72 52.5954 72.0477 52.8243 72.143C53.0599 72.2383 53.2652 72.371 53.4403 72.5412C53.6153 72.7114 53.7533 72.9089 53.8543 73.1336C53.9553 73.3582 54.0057 73.5999 54.0057 73.8586Z" fill="#333333"/>
<path d="M58.7539 77.9026C58.9558 77.712 59.1645 77.535 59.3799 77.3716C59.5954 77.2082 59.8242 77.072 60.0666 76.9631C60.3157 76.8474 60.5816 76.7589 60.8643 76.6976C61.1538 76.6295 61.4669 76.5955 61.8035 76.5955C62.3757 76.5955 62.8806 76.6976 63.3182 76.9018C63.7625 77.0993 64.1361 77.3784 64.439 77.7392C64.742 78.0933 64.9709 78.5188 65.1257 79.0158C65.2805 79.506 65.3579 80.0404 65.3579 80.6191V87.3489H62.2276V80.6191C62.2276 80.1017 62.1098 79.7 61.8741 79.414C61.6385 79.1213 61.2918 78.9749 60.8341 78.9749C60.4907 78.9749 60.1676 79.0498 59.8646 79.1996C59.5684 79.3426 59.279 79.54 58.9962 79.7919V87.3489H55.8658V76.7589H57.8046C58.1951 76.7589 58.4509 76.9359 58.5721 77.2899L58.7539 77.9026Z" fill="#333333"/>
<path d="M71.3726 81.4973C71.8909 81.4973 72.2646 81.368 72.4935 81.1093C72.7291 80.8437 72.8469 80.5033 72.8469 80.088C72.8469 79.6591 72.7291 79.3221 72.4935 79.077C72.2646 78.8319 71.8909 78.7094 71.3726 78.7094C70.8542 78.7094 70.4772 78.8319 70.2416 79.077C70.0127 79.3221 69.8983 79.6591 69.8983 80.088C69.8983 80.2923 69.9252 80.4795 69.9791 80.6497C70.0396 80.8199 70.1305 80.9697 70.2517 81.0991C70.3729 81.2216 70.5243 81.3203 70.7061 81.3952C70.8946 81.4633 71.1168 81.4973 71.3726 81.4973ZM73.7961 87.737C73.7961 87.4851 73.685 87.3046 73.4629 87.1957C73.2407 87.08 72.9512 86.9983 72.5944 86.9506C72.2376 86.903 71.8371 86.8757 71.3928 86.8689C70.9552 86.8553 70.5176 86.8281 70.08 86.7872C69.8848 86.9234 69.7232 87.0766 69.5953 87.2468C69.4742 87.4102 69.4136 87.5974 69.4136 87.8085C69.4136 87.9582 69.4439 88.0944 69.5044 88.2169C69.5718 88.3395 69.6862 88.445 69.8478 88.5335C70.0094 88.622 70.2248 88.6901 70.494 88.7378C70.7701 88.7922 71.1168 88.8195 71.5342 88.8195C71.9852 88.8195 72.3555 88.7922 72.6449 88.7378C72.9344 88.6833 73.1633 88.6084 73.3316 88.5131C73.5066 88.4178 73.6278 88.302 73.6951 88.1659C73.7625 88.0365 73.7961 87.8936 73.7961 87.737ZM76.8861 77.0857V78.2396C76.8861 78.4167 76.8356 78.5562 76.7346 78.6583C76.6404 78.7605 76.4754 78.8388 76.2398 78.8932L75.4825 79.0668C75.5229 79.2166 75.5532 79.3698 75.5734 79.5264C75.6003 79.683 75.6137 79.8464 75.6137 80.0166C75.6137 80.5476 75.5027 81.0242 75.2805 81.4463C75.0651 81.8684 74.7655 82.2292 74.3818 82.5288C74.0048 82.8215 73.5571 83.0496 73.0388 83.213C72.5204 83.3696 71.965 83.4479 71.3726 83.4479C71.211 83.4479 71.0528 83.4444 70.898 83.4376C70.7431 83.424 70.5917 83.4036 70.4436 83.3764C70.2147 83.5193 70.1002 83.6793 70.1002 83.8563C70.1002 84.0334 70.1945 84.1627 70.383 84.2444C70.5715 84.3193 70.8206 84.3738 71.1302 84.4078C71.4399 84.435 71.79 84.4555 72.1804 84.4691C72.5776 84.4759 72.9815 84.4997 73.3922 84.5406C73.8028 84.5746 74.2034 84.6359 74.5938 84.7244C74.991 84.8129 75.3445 84.9558 75.6541 85.1533C75.9638 85.3507 76.2129 85.6162 76.4014 85.9498C76.5899 86.2766 76.6841 86.6953 76.6841 87.2059C76.6841 87.6825 76.5697 88.1489 76.3408 88.605C76.1119 89.0611 75.7753 89.4662 75.331 89.8203C74.8867 90.1743 74.3414 90.4568 73.6951 90.6679C73.0489 90.8857 72.3083 90.9946 71.4736 90.9946C70.6523 90.9946 69.942 90.9164 69.3429 90.7598C68.7505 90.6032 68.2557 90.3955 67.8585 90.1368C67.468 89.8849 67.1786 89.5922 66.9901 89.2586C66.8016 88.925 66.7073 88.5778 66.7073 88.2169C66.7073 87.7472 66.8419 87.3557 67.1112 87.0425C67.3805 86.7294 67.7575 86.4775 68.2422 86.2868C67.9864 86.1302 67.7844 85.9294 67.6363 85.6843C67.4882 85.4392 67.4142 85.1226 67.4142 84.7346C67.4142 84.578 67.4411 84.4146 67.4949 84.2444C67.5488 84.0674 67.633 83.8972 67.7474 83.7338C67.8686 83.5636 68.0167 83.4036 68.1917 83.2538C68.3667 83.104 68.5754 82.9713 68.8178 82.8555C68.2725 82.5628 67.8416 82.1781 67.5252 81.7016C67.2088 81.2182 67.0506 80.6565 67.0506 80.0166C67.0506 79.4855 67.1617 79.009 67.3839 78.5869C67.606 78.1579 67.909 77.7971 68.2927 77.5044C68.6831 77.2048 69.1409 76.9767 69.666 76.8201C70.1911 76.6568 70.76 76.5751 71.3726 76.5751C72.2612 76.5751 73.0489 76.7453 73.7355 77.0857H76.8861Z" fill="#333333"/>
<path d="M92.0958 84.5916V87.3489H83.2297V72.4698H86.6428V84.5916H92.0958Z" fill="#333333"/>
<path d="M98.8794 83.0394C98.2533 83.0666 97.7383 83.1211 97.3344 83.2028C96.9305 83.2845 96.6107 83.3866 96.3751 83.5091C96.1395 83.6317 95.9745 83.7712 95.8803 83.9278C95.7928 84.0844 95.749 84.2546 95.749 84.4384C95.749 84.7993 95.8466 85.0546 96.0419 85.2043C96.2371 85.3473 96.5232 85.4188 96.9002 85.4188C97.3041 85.4188 97.6575 85.3473 97.9605 85.2043C98.2634 85.0614 98.5697 84.8299 98.8794 84.5099V83.0394ZM93.2447 78.2294C93.8775 77.6644 94.5777 77.2457 95.3451 76.9733C96.1193 76.6942 96.9473 76.5546 97.8292 76.5546C98.462 76.5546 99.0309 76.6602 99.5358 76.8712C100.047 77.0755 100.478 77.3648 100.828 77.7392C101.185 78.1069 101.458 78.546 101.646 79.0566C101.835 79.5672 101.929 80.1255 101.929 80.7314V87.3489H100.495C100.199 87.3489 99.9734 87.3081 99.8185 87.2264C99.6704 87.1447 99.5459 86.9745 99.4449 86.7157L99.2227 86.1337C98.9602 86.3583 98.7077 86.5558 98.4654 86.726C98.223 86.8962 97.9706 87.0425 97.708 87.1651C97.4522 87.2808 97.1762 87.3659 96.88 87.4204C96.5905 87.4817 96.2674 87.5123 95.9106 87.5123C95.4326 87.5123 94.9984 87.451 94.6079 87.3285C94.2175 87.1991 93.8843 87.0119 93.6082 86.7668C93.339 86.5217 93.1303 86.2188 92.9822 85.8579C92.8341 85.4903 92.76 85.0682 92.76 84.5916C92.76 84.2104 92.8543 83.8257 93.0428 83.4376C93.2313 83.0428 93.5578 82.6853 94.0223 82.3654C94.4868 82.0386 95.1128 81.7662 95.9005 81.5484C96.6881 81.3305 97.6811 81.208 98.8794 81.1807V80.7314C98.8794 80.1119 98.7515 79.6659 98.4957 79.3936C98.2466 79.1145 97.8898 78.9749 97.4253 78.9749C97.055 78.9749 96.7521 79.0158 96.5165 79.0975C96.2808 79.1792 96.0688 79.2711 95.8803 79.3732C95.6985 79.4753 95.5201 79.5672 95.3451 79.6489C95.1701 79.7306 94.9614 79.7715 94.719 79.7715C94.5036 79.7715 94.3218 79.717 94.1737 79.6081C94.0256 79.4991 93.9044 79.3698 93.8102 79.22L93.2447 78.2294Z" fill="#333333"/>
<path d="M110.282 79.5979C110.046 79.3323 109.79 79.1485 109.514 79.0464C109.238 78.9375 108.949 78.883 108.646 78.883C108.356 78.883 108.09 78.9409 107.848 79.0566C107.606 79.1724 107.394 79.3596 107.212 79.6183C107.037 79.8702 106.899 80.2004 106.798 80.6089C106.697 81.0174 106.646 81.5109 106.646 82.0896C106.646 82.6479 106.687 83.1177 106.768 83.4989C106.848 83.8802 106.959 84.1899 107.101 84.4282C107.249 84.6597 107.424 84.8265 107.626 84.9286C107.828 85.0307 108.053 85.0818 108.302 85.0818C108.531 85.0818 108.737 85.0614 108.918 85.0205C109.107 84.9729 109.279 84.9082 109.433 84.8265C109.588 84.7448 109.733 84.6427 109.868 84.5201C110.009 84.3908 110.147 84.2444 110.282 84.081V79.5979ZM113.412 72.0613V87.3489H111.473C111.083 87.3489 110.827 87.1719 110.706 86.8179L110.463 86.0111C110.255 86.2358 110.036 86.44 109.807 86.6238C109.578 86.8077 109.329 86.9676 109.06 87.1038C108.797 87.2332 108.511 87.3319 108.201 87.4C107.899 87.4749 107.569 87.5123 107.212 87.5123C106.667 87.5123 106.162 87.3898 105.697 87.1447C105.233 86.8996 104.832 86.5455 104.495 86.0826C104.159 85.6196 103.893 85.0546 103.698 84.3874C103.509 83.7134 103.415 82.9475 103.415 82.0896C103.415 81.2999 103.523 80.568 103.738 79.894C103.954 79.2132 104.256 78.6277 104.647 78.1375C105.044 77.6405 105.519 77.2525 106.071 76.9733C106.623 76.6942 107.232 76.5546 107.899 76.5546C108.444 76.5546 108.902 76.6329 109.272 76.7895C109.642 76.9461 109.979 77.1571 110.282 77.4227V72.0613H113.412Z" fill="#333333"/>
<path d="M121.879 79.5979C121.643 79.3323 121.387 79.1485 121.111 79.0464C120.835 78.9375 120.546 78.883 120.243 78.883C119.953 78.883 119.687 78.9409 119.445 79.0566C119.203 79.1724 118.991 79.3596 118.809 79.6183C118.634 79.8702 118.496 80.2004 118.395 80.6089C118.294 81.0174 118.243 81.5109 118.243 82.0896C118.243 82.6479 118.284 83.1177 118.364 83.4989C118.445 83.8802 118.556 84.1899 118.698 84.4282C118.846 84.6597 119.021 84.8265 119.223 84.9286C119.425 85.0307 119.65 85.0818 119.899 85.0818C120.128 85.0818 120.334 85.0614 120.515 85.0205C120.704 84.9729 120.876 84.9082 121.03 84.8265C121.185 84.7448 121.33 84.6427 121.465 84.5201C121.606 84.3908 121.744 84.2444 121.879 84.081V79.5979ZM125.009 72.0613V87.3489H123.07C122.68 87.3489 122.424 87.1719 122.303 86.8179L122.06 86.0111C121.852 86.2358 121.633 86.44 121.404 86.6238C121.175 86.8077 120.926 86.9676 120.657 87.1038C120.394 87.2332 120.108 87.3319 119.798 87.4C119.495 87.4749 119.166 87.5123 118.809 87.5123C118.263 87.5123 117.759 87.3898 117.294 87.1447C116.83 86.8996 116.429 86.5455 116.092 86.0826C115.756 85.6196 115.49 85.0546 115.295 84.3874C115.106 83.7134 115.012 82.9475 115.012 82.0896C115.012 81.2999 115.12 80.568 115.335 79.894C115.55 79.2132 115.853 78.6277 116.244 78.1375C116.641 77.6405 117.116 77.2525 117.668 76.9733C118.22 76.6942 118.829 76.5546 119.495 76.5546C120.041 76.5546 120.499 76.6329 120.869 76.7895C121.239 76.9461 121.576 77.1571 121.879 77.4227V72.0613H125.009Z" fill="#333333"/>
<path d="M133.637 80.7825C133.637 80.5306 133.603 80.2855 133.536 80.0472C133.476 79.8089 133.371 79.5979 133.223 79.414C133.082 79.2234 132.893 79.0702 132.658 78.9545C132.422 78.8388 132.136 78.7809 131.799 78.7809C131.207 78.7809 130.742 78.9545 130.406 79.3017C130.069 79.6421 129.847 80.1357 129.739 80.7825H133.637ZM129.699 82.6207C129.8 83.5057 130.066 84.1491 130.497 84.5508C130.927 84.9456 131.483 85.1431 132.163 85.1431C132.526 85.1431 132.839 85.0988 133.102 85.0103C133.364 84.9218 133.597 84.8231 133.799 84.7142C134.007 84.6052 134.196 84.5065 134.364 84.418C134.539 84.3295 134.721 84.2853 134.909 84.2853C135.159 84.2853 135.347 84.3772 135.475 84.561L136.384 85.6945C136.061 86.069 135.711 86.3753 135.334 86.6136C134.963 86.8451 134.58 87.0289 134.182 87.1651C133.792 87.2944 133.398 87.3829 133.001 87.4306C132.61 87.4851 132.237 87.5123 131.88 87.5123C131.146 87.5123 130.456 87.3932 129.81 87.1549C129.17 86.9098 128.608 86.549 128.124 86.0724C127.646 85.5958 127.265 85.0035 126.982 84.2955C126.706 83.5874 126.568 82.7636 126.568 81.8241C126.568 81.1161 126.686 80.4455 126.922 79.8123C127.164 79.1792 127.508 78.6243 127.952 78.1477C128.403 77.6712 128.945 77.2933 129.578 77.0142C130.217 76.735 130.938 76.5955 131.739 76.5955C132.432 76.5955 133.065 76.7044 133.637 76.9223C134.216 77.1401 134.711 77.4567 135.121 77.872C135.539 78.2873 135.862 78.7979 136.091 79.4038C136.327 80.0029 136.444 80.6838 136.444 81.4463C136.444 81.6846 136.434 81.8786 136.414 82.0284C136.394 82.1781 136.357 82.2973 136.303 82.3858C136.249 82.4743 136.175 82.5356 136.081 82.5696C135.993 82.6036 135.879 82.6207 135.737 82.6207H129.699Z" fill="#333333"/>
<path d="M140.939 78.3928C141.262 77.8209 141.633 77.3716 142.05 77.0448C142.474 76.718 142.959 76.5546 143.504 76.5546C143.975 76.5546 144.359 76.667 144.655 76.8916L144.453 79.22C144.42 79.3698 144.362 79.4719 144.282 79.5264C144.208 79.5808 144.103 79.6081 143.969 79.6081C143.915 79.6081 143.844 79.6047 143.757 79.5979C143.669 79.5911 143.578 79.5842 143.484 79.5774C143.39 79.5638 143.292 79.5536 143.191 79.5468C143.097 79.5332 143.009 79.5264 142.929 79.5264C142.471 79.5264 142.104 79.6489 141.828 79.894C141.559 80.1391 141.33 80.4795 141.141 80.9152V87.3489H138.011V76.7589H139.869C140.024 76.7589 140.152 76.7725 140.253 76.7997C140.36 76.827 140.448 76.8712 140.515 76.9325C140.589 76.9869 140.643 77.0618 140.677 77.1572C140.717 77.2525 140.751 77.3682 140.778 77.5044L140.939 78.3928Z" fill="#333333"/>
<path d="M152.377 79.077C152.296 79.2064 152.209 79.2983 152.114 79.3528C152.027 79.4072 151.912 79.4345 151.771 79.4345C151.623 79.4345 151.475 79.4038 151.327 79.3426C151.179 79.2745 151.017 79.203 150.842 79.1281C150.674 79.0532 150.482 78.9851 150.266 78.9239C150.051 78.8558 149.805 78.8217 149.529 78.8217C149.132 78.8217 148.826 78.9 148.61 79.0566C148.402 79.2064 148.297 79.4174 148.297 79.6898C148.297 79.8872 148.365 80.0506 148.499 80.18C148.641 80.3093 148.826 80.425 149.055 80.5272C149.284 80.6225 149.543 80.7144 149.832 80.8029C150.122 80.8914 150.418 80.9901 150.721 81.0991C151.024 81.208 151.32 81.3373 151.609 81.4871C151.899 81.6301 152.158 81.8105 152.387 82.0284C152.616 82.2394 152.798 82.4981 152.932 82.8045C153.074 83.1109 153.144 83.4785 153.144 83.9074C153.144 84.4316 153.05 84.915 152.862 85.3575C152.673 85.8001 152.39 86.1813 152.013 86.5013C151.643 86.8213 151.182 87.0698 150.63 87.2468C150.085 87.4238 149.455 87.5123 148.742 87.5123C148.385 87.5123 148.028 87.4783 147.671 87.4102C147.314 87.3421 146.968 87.2502 146.631 87.1344C146.301 87.0187 145.995 86.8825 145.712 86.726C145.429 86.5626 145.187 86.389 144.985 86.2051L145.712 85.041C145.793 84.9048 145.894 84.7993 146.015 84.7244C146.143 84.6427 146.305 84.6018 146.5 84.6018C146.682 84.6018 146.843 84.6427 146.985 84.7244C147.133 84.8061 147.291 84.8946 147.459 84.9899C147.628 85.0852 147.823 85.1737 148.045 85.2554C148.274 85.3371 148.56 85.378 148.903 85.378C149.146 85.378 149.351 85.3541 149.519 85.3065C149.687 85.252 149.822 85.1805 149.923 85.092C150.024 85.0035 150.098 84.9048 150.145 84.7959C150.192 84.6869 150.216 84.5746 150.216 84.4589C150.216 84.2478 150.145 84.0742 150.004 83.938C149.863 83.8019 149.677 83.6861 149.449 83.5908C149.22 83.4887 148.957 83.3968 148.661 83.3151C148.371 83.2266 148.075 83.1279 147.772 83.0189C147.469 82.91 147.17 82.7807 146.874 82.6309C146.584 82.4743 146.325 82.2803 146.096 82.0488C145.867 81.8105 145.682 81.5212 145.541 81.1807C145.399 80.8403 145.329 80.4285 145.329 79.9451C145.329 79.4957 145.413 79.0702 145.581 78.6686C145.756 78.2601 146.015 77.9026 146.359 77.5963C146.702 77.2899 147.133 77.0482 147.651 76.8712C148.169 76.6874 148.775 76.5955 149.469 76.5955C149.846 76.5955 150.209 76.6295 150.559 76.6976C150.916 76.7657 151.249 76.861 151.559 76.9835C151.869 77.1061 152.151 77.2525 152.407 77.4227C152.663 77.5861 152.889 77.7665 153.084 77.9639L152.377 79.077Z" fill="#333333"/>
<path d="M16.0455 99.8449C16.0098 99.9042 15.9722 99.9498 15.9327 99.9814C15.8931 100.009 15.8417 100.023 15.7783 100.023C15.7111 100.023 15.6319 99.9893 15.5409 99.9221C15.4539 99.8548 15.3411 99.7816 15.2026 99.7024C15.068 99.6193 14.9038 99.5441 14.7099 99.4769C14.5199 99.4096 14.2884 99.376 14.0154 99.376C13.7582 99.376 13.5306 99.4116 13.3328 99.4828C13.1349 99.5501 12.9687 99.6431 12.8342 99.7618C12.7036 99.8805 12.6047 100.021 12.5374 100.183C12.4701 100.342 12.4365 100.514 12.4365 100.7C12.4365 100.937 12.4939 101.135 12.6086 101.293C12.7273 101.448 12.8817 101.58 13.0716 101.691C13.2655 101.802 13.4832 101.899 13.7245 101.982C13.9699 102.061 14.2192 102.144 14.4725 102.231C14.7297 102.318 14.979 102.417 15.2204 102.528C15.4657 102.635 15.6834 102.771 15.8733 102.937C16.0672 103.104 16.2216 103.307 16.3363 103.549C16.455 103.79 16.5144 104.087 16.5144 104.439C16.5144 104.811 16.4511 105.161 16.3244 105.49C16.1978 105.814 16.0118 106.097 15.7665 106.339C15.5251 106.58 15.2263 106.77 14.8702 106.909C14.518 107.047 14.1163 107.116 13.6652 107.116C13.1151 107.116 12.6126 107.017 12.1575 106.819C11.7064 106.618 11.3205 106.347 11 106.006L11.3324 105.46C11.3641 105.417 11.4017 105.381 11.4452 105.353C11.4927 105.322 11.5441 105.306 11.5995 105.306C11.6826 105.306 11.7776 105.351 11.8844 105.442C11.9913 105.529 12.1239 105.626 12.2821 105.733C12.4444 105.84 12.6383 105.939 12.8639 106.03C13.0934 106.117 13.3724 106.161 13.7008 106.161C13.9739 106.161 14.2172 106.123 14.4309 106.048C14.6446 105.973 14.8247 105.868 14.9711 105.733C15.1214 105.595 15.2362 105.431 15.3153 105.241C15.3945 105.051 15.4341 104.839 15.4341 104.605C15.4341 104.348 15.3747 104.138 15.256 103.976C15.1412 103.81 14.9889 103.672 14.7989 103.561C14.609 103.45 14.3913 103.357 14.146 103.282C13.9046 103.203 13.6553 103.123 13.3981 103.044C13.1448 102.961 12.8955 102.866 12.6502 102.759C12.4088 102.653 12.1931 102.514 12.0032 102.344C11.8132 102.174 11.6589 101.962 11.5402 101.709C11.4254 101.452 11.368 101.135 11.368 100.759C11.368 100.458 11.4254 100.167 11.5402 99.8864C11.6589 99.6055 11.829 99.3562 12.0506 99.1385C12.2722 98.9209 12.5453 98.7468 12.8698 98.6162C13.1982 98.4856 13.5742 98.4203 13.9976 98.4203C14.4725 98.4203 14.9058 98.4955 15.2975 98.6459C15.6893 98.7962 16.0316 99.0139 16.3244 99.2988L16.0455 99.8449Z" fill="#5A5C6A"/>
<path d="M23.3438 102.077C23.3122 102.12 23.2805 102.154 23.2489 102.178C23.2172 102.201 23.1717 102.213 23.1123 102.213C23.053 102.213 22.9877 102.19 22.9165 102.142C22.8492 102.091 22.7621 102.035 22.6553 101.976C22.5484 101.916 22.4178 101.863 22.2635 101.816C22.1131 101.764 21.9271 101.738 21.7055 101.738C21.4127 101.738 21.1535 101.792 20.928 101.899C20.7024 102.002 20.5124 102.152 20.3581 102.35C20.2077 102.548 20.093 102.787 20.0138 103.068C19.9386 103.349 19.9011 103.664 19.9011 104.012C19.9011 104.376 19.9426 104.7 20.0257 104.985C20.1088 105.266 20.2255 105.504 20.3759 105.698C20.5263 105.888 20.7083 106.034 20.922 106.137C21.1397 106.236 21.383 106.285 21.6521 106.285C21.9093 106.285 22.1211 106.256 22.2873 106.196C22.4535 106.133 22.592 106.064 22.7028 105.988C22.8136 105.913 22.9046 105.846 22.9758 105.787C23.047 105.723 23.1183 105.692 23.1895 105.692C23.2805 105.692 23.3478 105.725 23.3913 105.793L23.6881 106.178C23.4269 106.499 23.1005 106.734 22.7087 106.885C22.3169 107.031 21.9034 107.104 21.4681 107.104C21.0922 107.104 20.742 107.035 20.4175 106.897C20.0969 106.758 19.818 106.558 19.5805 106.297C19.3431 106.032 19.1551 105.708 19.0166 105.324C18.8821 104.94 18.8148 104.503 18.8148 104.012C18.8148 103.565 18.8761 103.151 18.9988 102.771C19.1254 102.391 19.3075 102.065 19.5449 101.792C19.7863 101.515 20.0831 101.299 20.4353 101.145C20.7875 100.991 21.1911 100.913 21.6462 100.913C22.0657 100.913 22.4376 100.983 22.7621 101.121C23.0866 101.256 23.3735 101.448 23.6228 101.697L23.3438 102.077Z" fill="#5A5C6A"/>
<path d="M26.2084 107.021V98.2778H27.265V101.816C27.5222 101.543 27.8071 101.325 28.1198 101.163C28.4324 100.996 28.7925 100.913 29.2001 100.913C29.5285 100.913 29.8174 100.969 30.0667 101.08C30.32 101.186 30.5297 101.341 30.6959 101.543C30.8661 101.74 30.9947 101.98 31.0817 102.261C31.1688 102.542 31.2123 102.852 31.2123 103.193V107.021H30.1558V103.193C30.1558 102.738 30.0509 102.385 29.8412 102.136C29.6354 101.883 29.3188 101.756 28.8914 101.756C28.5788 101.756 28.286 101.831 28.0129 101.982C27.7438 102.132 27.4945 102.336 27.265 102.593V107.021H26.2084Z" fill="#5A5C6A"/>
<path d="M36.6634 100.913C37.1026 100.913 37.4983 100.987 37.8505 101.133C38.2067 101.279 38.5074 101.487 38.7528 101.756C39.0021 102.025 39.192 102.352 39.3226 102.736C39.4572 103.116 39.5244 103.541 39.5244 104.012C39.5244 104.487 39.4572 104.914 39.3226 105.294C39.192 105.674 39.0021 105.998 38.7528 106.267C38.5074 106.537 38.2067 106.744 37.8505 106.891C37.4983 107.033 37.1026 107.104 36.6634 107.104C36.2241 107.104 35.8264 107.033 35.4703 106.891C35.1181 106.744 34.8173 106.537 34.568 106.267C34.3187 105.998 34.1268 105.674 33.9922 105.294C33.8577 104.914 33.7904 104.487 33.7904 104.012C33.7904 103.541 33.8577 103.116 33.9922 102.736C34.1268 102.352 34.3187 102.025 34.568 101.756C34.8173 101.487 35.1181 101.279 35.4703 101.133C35.8264 100.987 36.2241 100.913 36.6634 100.913ZM36.6634 106.279C37.257 106.279 37.7002 106.081 37.993 105.686C38.2858 105.286 38.4322 104.73 38.4322 104.018C38.4322 103.302 38.2858 102.744 37.993 102.344C37.7002 101.944 37.257 101.744 36.6634 101.744C36.3626 101.744 36.1014 101.796 35.8798 101.899C35.6582 102.002 35.4722 102.15 35.3219 102.344C35.1755 102.538 35.0647 102.777 34.9895 103.062C34.9182 103.343 34.8826 103.662 34.8826 104.018C34.8826 104.374 34.9182 104.692 34.9895 104.973C35.0647 105.254 35.1755 105.492 35.3219 105.686C35.4722 105.876 35.6582 106.022 35.8798 106.125C36.1014 106.228 36.3626 106.279 36.6634 106.279Z" fill="#5A5C6A"/>
<path d="M44.6846 100.913C45.1239 100.913 45.5196 100.987 45.8718 101.133C46.2279 101.279 46.5287 101.487 46.774 101.756C47.0233 102.025 47.2133 102.352 47.3439 102.736C47.4784 103.116 47.5457 103.541 47.5457 104.012C47.5457 104.487 47.4784 104.914 47.3439 105.294C47.2133 105.674 47.0233 105.998 46.774 106.267C46.5287 106.537 46.2279 106.744 45.8718 106.891C45.5196 107.033 45.1239 107.104 44.6846 107.104C44.2454 107.104 43.8477 107.033 43.4915 106.891C43.1393 106.744 42.8386 106.537 42.5893 106.267C42.34 105.998 42.148 105.674 42.0135 105.294C41.879 104.914 41.8117 104.487 41.8117 104.012C41.8117 103.541 41.879 103.116 42.0135 102.736C42.148 102.352 42.34 102.025 42.5893 101.756C42.8386 101.487 43.1393 101.279 43.4915 101.133C43.8477 100.987 44.2454 100.913 44.6846 100.913ZM44.6846 106.279C45.2782 106.279 45.7214 106.081 46.0142 105.686C46.3071 105.286 46.4535 104.73 46.4535 104.018C46.4535 103.302 46.3071 102.744 46.0142 102.344C45.7214 101.944 45.2782 101.744 44.6846 101.744C44.3839 101.744 44.1227 101.796 43.9011 101.899C43.6795 102.002 43.4935 102.15 43.3431 102.344C43.1967 102.538 43.0859 102.777 43.0107 103.062C42.9395 103.343 42.9039 103.662 42.9039 104.018C42.9039 104.374 42.9395 104.692 43.0107 104.973C43.0859 105.254 43.1967 105.492 43.3431 105.686C43.4935 105.876 43.6795 106.022 43.9011 106.125C44.1227 106.228 44.3839 106.279 44.6846 106.279Z" fill="#5A5C6A"/>
<path d="M51.4475 98.2778V107.021H50.3909V98.2778H51.4475Z" fill="#5A5C6A"/>
<path d="M60.888 100.913C61.3273 100.913 61.723 100.987 62.0752 101.133C62.4314 101.279 62.7321 101.487 62.9775 101.756C63.2268 102.025 63.4167 102.352 63.5473 102.736C63.6818 103.116 63.7491 103.541 63.7491 104.012C63.7491 104.487 63.6818 104.914 63.5473 105.294C63.4167 105.674 63.2268 105.998 62.9775 106.267C62.7321 106.537 62.4314 106.744 62.0752 106.891C61.723 107.033 61.3273 107.104 60.888 107.104C60.4488 107.104 60.0511 107.033 59.6949 106.891C59.3428 106.744 59.042 106.537 58.7927 106.267C58.5434 105.998 58.3515 105.674 58.2169 105.294C58.0824 104.914 58.0151 104.487 58.0151 104.012C58.0151 103.541 58.0824 103.116 58.2169 102.736C58.3515 102.352 58.5434 102.025 58.7927 101.756C59.042 101.487 59.3428 101.279 59.6949 101.133C60.0511 100.987 60.4488 100.913 60.888 100.913ZM60.888 106.279C61.4816 106.279 61.9248 106.081 62.2177 105.686C62.5105 105.286 62.6569 104.73 62.6569 104.018C62.6569 103.302 62.5105 102.744 62.2177 102.344C61.9248 101.944 61.4816 101.744 60.888 101.744C60.5873 101.744 60.3261 101.796 60.1045 101.899C59.8829 102.002 59.6969 102.15 59.5465 102.344C59.4001 102.538 59.2893 102.777 59.2141 103.062C59.1429 103.343 59.1073 103.662 59.1073 104.018C59.1073 104.374 59.1429 104.692 59.2141 104.973C59.2893 105.254 59.4001 105.492 59.5465 105.686C59.6969 105.876 59.8829 106.022 60.1045 106.125C60.3261 106.228 60.5873 106.279 60.888 106.279Z" fill="#5A5C6A"/>
<path d="M66.713 107.021V101.911L66.0482 101.833C65.9651 101.814 65.8959 101.784 65.8405 101.744C65.789 101.701 65.7633 101.639 65.7633 101.56V101.127H66.713V100.545C66.713 100.201 66.7605 99.8963 66.8555 99.6312C66.9544 99.3621 67.0929 99.1365 67.271 98.9545C67.453 98.7685 67.6707 98.628 67.9239 98.5331C68.1772 98.4381 68.4621 98.3906 68.7787 98.3906C69.0478 98.3906 69.2971 98.4302 69.5266 98.5093L69.5029 99.0376C69.4989 99.1168 69.4653 99.1642 69.402 99.1801C69.3386 99.1959 69.2496 99.2038 69.1349 99.2038H68.9508C68.7688 99.2038 68.6026 99.2276 68.4522 99.2751C68.3058 99.3225 68.1792 99.3997 68.0723 99.5065C67.9655 99.6134 67.8824 99.7539 67.823 99.928C67.7676 100.102 67.7399 100.318 67.7399 100.575V101.127H69.4791V101.893H67.7756V107.021H66.713Z" fill="#5A5C6A"/>
<path d="M81.0276 98.5153V99.4531H76.9437V102.279H80.25V103.181H76.9437V106.083H81.0276V107.021H75.7862V98.5153H81.0276Z" fill="#5A5C6A"/>
<path d="M85.3495 103.941L83.3254 101.008H84.3404C84.4275 101.008 84.4908 101.022 84.5304 101.05C84.5699 101.078 84.6055 101.117 84.6372 101.169L86.1093 103.424C86.1449 103.313 86.1964 103.203 86.2636 103.092L87.5576 101.192C87.5972 101.137 87.6368 101.093 87.6763 101.062C87.7159 101.026 87.7654 101.008 87.8247 101.008H88.7982L86.7741 103.881L88.8813 107.021H87.8663C87.7792 107.021 87.71 107 87.6585 106.956C87.611 106.909 87.5715 106.857 87.5398 106.802L86.0262 104.445C85.9985 104.56 85.9569 104.663 85.9015 104.754L84.5007 106.802C84.4611 106.857 84.4176 106.909 84.3701 106.956C84.3266 107 84.2652 107.021 84.1861 107.021H83.2423L85.3495 103.941Z" fill="#5A5C6A"/>
<path d="M95.0918 102.077C95.0601 102.12 95.0285 102.154 94.9968 102.178C94.9651 102.201 94.9196 102.213 94.8603 102.213C94.8009 102.213 94.7356 102.19 94.6644 102.142C94.5971 102.091 94.5101 102.035 94.4032 101.976C94.2964 101.916 94.1658 101.863 94.0115 101.816C93.8611 101.764 93.6751 101.738 93.4535 101.738C93.1607 101.738 92.9015 101.792 92.6759 101.899C92.4503 102.002 92.2604 102.152 92.106 102.35C91.9557 102.548 91.8409 102.787 91.7618 103.068C91.6866 103.349 91.649 103.664 91.649 104.012C91.649 104.376 91.6905 104.7 91.7736 104.985C91.8567 105.266 91.9735 105.504 92.1239 105.698C92.2742 105.888 92.4563 106.034 92.67 106.137C92.8876 106.236 93.131 106.285 93.4001 106.285C93.6573 106.285 93.869 106.256 94.0352 106.196C94.2014 106.133 94.3399 106.064 94.4507 105.988C94.5615 105.913 94.6525 105.846 94.7238 105.787C94.795 105.723 94.8662 105.692 94.9374 105.692C95.0285 105.692 95.0957 105.725 95.1393 105.793L95.4361 106.178C95.1749 106.499 94.8484 106.734 94.4566 106.885C94.0649 107.031 93.6514 107.104 93.2161 107.104C92.8401 107.104 92.4899 107.035 92.1654 106.897C91.8449 106.758 91.5659 106.558 91.3285 106.297C91.091 106.032 90.9031 105.708 90.7646 105.324C90.63 104.94 90.5627 104.503 90.5627 104.012C90.5627 103.565 90.6241 103.151 90.7467 102.771C90.8734 102.391 91.0554 102.065 91.2928 101.792C91.5342 101.515 91.831 101.299 92.1832 101.145C92.5354 100.991 92.939 100.913 93.3941 100.913C93.8136 100.913 94.1856 100.983 94.5101 101.121C94.8346 101.256 95.1215 101.448 95.3708 101.697L95.0918 102.077Z" fill="#5A5C6A"/>
<path d="M100.337 100.913C100.697 100.913 101.029 100.975 101.334 101.097C101.639 101.216 101.902 101.39 102.123 101.62C102.345 101.845 102.517 102.126 102.64 102.463C102.766 102.795 102.83 103.175 102.83 103.602C102.83 103.768 102.812 103.879 102.776 103.935C102.741 103.99 102.673 104.018 102.574 104.018H98.5737C98.5816 104.398 98.633 104.728 98.728 105.009C98.823 105.29 98.9536 105.525 99.1198 105.715C99.286 105.901 99.4838 106.042 99.7134 106.137C99.9429 106.228 100.2 106.273 100.485 106.273C100.75 106.273 100.978 106.244 101.168 106.184C101.362 106.121 101.528 106.054 101.666 105.983C101.805 105.911 101.92 105.846 102.011 105.787C102.106 105.723 102.187 105.692 102.254 105.692C102.341 105.692 102.408 105.725 102.456 105.793L102.753 106.178C102.622 106.337 102.466 106.475 102.284 106.594C102.102 106.709 101.906 106.804 101.696 106.879C101.49 106.954 101.276 107.009 101.055 107.045C100.833 107.085 100.614 107.104 100.396 107.104C99.9805 107.104 99.5966 107.035 99.2444 106.897C98.8962 106.754 98.5935 106.548 98.3363 106.279C98.083 106.006 97.8851 105.67 97.7427 105.27C97.6002 104.871 97.529 104.412 97.529 103.893C97.529 103.474 97.5923 103.082 97.7189 102.718C97.8495 102.354 98.0355 102.039 98.2769 101.774C98.5183 101.505 98.8131 101.295 99.1613 101.145C99.5096 100.991 99.9013 100.913 100.337 100.913ZM100.36 101.691C99.8499 101.691 99.4482 101.839 99.1554 102.136C98.8626 102.429 98.6805 102.837 98.6093 103.359H101.88C101.88 103.114 101.846 102.89 101.779 102.688C101.712 102.482 101.613 102.306 101.482 102.16C101.352 102.009 101.191 101.895 101.001 101.816C100.815 101.732 100.602 101.691 100.36 101.691Z" fill="#5A5C6A"/>
<path d="M106.782 98.2778V107.021H105.725V98.2778H106.782Z" fill="#5A5C6A"/>
<path d="M111.244 98.2778V107.021H110.187V98.2778H111.244Z" fill="#5A5C6A"/>
<path d="M116.911 100.913C117.271 100.913 117.604 100.975 117.908 101.097C118.213 101.216 118.476 101.39 118.698 101.62C118.919 101.845 119.091 102.126 119.214 102.463C119.341 102.795 119.404 103.175 119.404 103.602C119.404 103.768 119.386 103.879 119.351 103.935C119.315 103.99 119.248 104.018 119.149 104.018H115.148C115.156 104.398 115.207 104.728 115.302 105.009C115.397 105.29 115.528 105.525 115.694 105.715C115.86 105.901 116.058 106.042 116.288 106.137C116.517 106.228 116.775 106.273 117.059 106.273C117.325 106.273 117.552 106.244 117.742 106.184C117.936 106.121 118.102 106.054 118.241 105.983C118.379 105.911 118.494 105.846 118.585 105.787C118.68 105.723 118.761 105.692 118.828 105.692C118.915 105.692 118.983 105.725 119.03 105.793L119.327 106.178C119.196 106.337 119.04 106.475 118.858 106.594C118.676 106.709 118.48 106.804 118.27 106.879C118.065 106.954 117.851 107.009 117.629 107.045C117.408 107.085 117.188 107.104 116.97 107.104C116.555 107.104 116.171 107.035 115.819 106.897C115.471 106.754 115.168 106.548 114.911 106.279C114.657 106.006 114.46 105.67 114.317 105.27C114.175 104.871 114.103 104.412 114.103 103.893C114.103 103.474 114.167 103.082 114.293 102.718C114.424 102.354 114.61 102.039 114.851 101.774C115.093 101.505 115.388 101.295 115.736 101.145C116.084 100.991 116.476 100.913 116.911 100.913ZM116.935 101.691C116.424 101.691 116.023 101.839 115.73 102.136C115.437 102.429 115.255 102.837 115.184 103.359H118.454C118.454 103.114 118.421 102.89 118.353 102.688C118.286 102.482 118.187 102.306 118.057 102.16C117.926 102.009 117.766 101.895 117.576 101.816C117.39 101.732 117.176 101.691 116.935 101.691Z" fill="#5A5C6A"/>
<path d="M122.181 107.021V101.008H122.81C122.961 101.008 123.056 101.082 123.095 101.228L123.178 101.881C123.439 101.592 123.73 101.359 124.051 101.18C124.375 101.002 124.749 100.913 125.173 100.913C125.501 100.913 125.79 100.969 126.039 101.08C126.293 101.186 126.502 101.341 126.669 101.543C126.839 101.74 126.967 101.98 127.054 102.261C127.141 102.542 127.185 102.852 127.185 103.193V107.021H126.128V103.193C126.128 102.738 126.023 102.385 125.814 102.136C125.608 101.883 125.291 101.756 124.864 101.756C124.551 101.756 124.259 101.831 123.986 101.982C123.716 102.132 123.467 102.336 123.238 102.593V107.021H122.181Z" fill="#5A5C6A"/>
<path d="M134.304 102.077C134.272 102.12 134.241 102.154 134.209 102.178C134.177 102.201 134.132 102.213 134.072 102.213C134.013 102.213 133.948 102.19 133.877 102.142C133.809 102.091 133.722 102.035 133.615 101.976C133.509 101.916 133.378 101.863 133.224 101.816C133.073 101.764 132.887 101.738 132.666 101.738C132.373 101.738 132.114 101.792 131.888 101.899C131.663 102.002 131.473 102.152 131.318 102.35C131.168 102.548 131.053 102.787 130.974 103.068C130.899 103.349 130.861 103.664 130.861 104.012C130.861 104.376 130.903 104.7 130.986 104.985C131.069 105.266 131.186 105.504 131.336 105.698C131.486 105.888 131.668 106.034 131.882 106.137C132.1 106.236 132.343 106.285 132.612 106.285C132.869 106.285 133.081 106.256 133.247 106.196C133.414 106.133 133.552 106.064 133.663 105.988C133.774 105.913 133.865 105.846 133.936 105.787C134.007 105.723 134.078 105.692 134.15 105.692C134.241 105.692 134.308 105.725 134.351 105.793L134.648 106.178C134.387 106.499 134.061 106.734 133.669 106.885C133.277 107.031 132.864 107.104 132.428 107.104C132.052 107.104 131.702 107.035 131.378 106.897C131.057 106.758 130.778 106.558 130.541 106.297C130.303 106.032 130.115 105.708 129.977 105.324C129.842 104.94 129.775 104.503 129.775 104.012C129.775 103.565 129.836 103.151 129.959 102.771C130.086 102.391 130.268 102.065 130.505 101.792C130.746 101.515 131.043 101.299 131.395 101.145C131.748 100.991 132.151 100.913 132.606 100.913C133.026 100.913 133.398 100.983 133.722 101.121C134.047 101.256 134.334 101.448 134.583 101.697L134.304 102.077Z" fill="#5A5C6A"/>
<path d="M139.549 100.913C139.909 100.913 140.241 100.975 140.546 101.097C140.851 101.216 141.114 101.39 141.335 101.62C141.557 101.845 141.729 102.126 141.852 102.463C141.979 102.795 142.042 103.175 142.042 103.602C142.042 103.768 142.024 103.879 141.988 103.935C141.953 103.99 141.886 104.018 141.787 104.018H137.786C137.794 104.398 137.845 104.728 137.94 105.009C138.035 105.29 138.166 105.525 138.332 105.715C138.498 105.901 138.696 106.042 138.926 106.137C139.155 106.228 139.412 106.273 139.697 106.273C139.962 106.273 140.19 106.244 140.38 106.184C140.574 106.121 140.74 106.054 140.878 105.983C141.017 105.911 141.132 105.846 141.223 105.787C141.318 105.723 141.399 105.692 141.466 105.692C141.553 105.692 141.62 105.725 141.668 105.793L141.965 106.178C141.834 106.337 141.678 106.475 141.496 106.594C141.314 106.709 141.118 106.804 140.908 106.879C140.702 106.954 140.489 107.009 140.267 107.045C140.045 107.085 139.826 107.104 139.608 107.104C139.193 107.104 138.809 107.035 138.457 106.897C138.108 106.754 137.806 106.548 137.548 106.279C137.295 106.006 137.097 105.67 136.955 105.27C136.812 104.871 136.741 104.412 136.741 103.893C136.741 103.474 136.804 103.082 136.931 102.718C137.062 102.354 137.248 102.039 137.489 101.774C137.73 101.505 138.025 101.295 138.374 101.145C138.722 100.991 139.114 100.913 139.549 100.913ZM139.573 101.691C139.062 101.691 138.66 101.839 138.368 102.136C138.075 102.429 137.893 102.837 137.821 103.359H141.092C141.092 103.114 141.058 102.89 140.991 102.688C140.924 102.482 140.825 102.306 140.694 102.16C140.564 102.009 140.404 101.895 140.214 101.816C140.028 101.732 139.814 101.691 139.573 101.691Z" fill="#5A5C6A"/>
<defs>
<clipPath id="clip0_1_433">
<rect width="102" height="39" fill="white" transform="translate(23 13)"/>
</clipPath>
</defs>
</svg>
