<svg width="14" height="13" viewBox="0 0 14 13" fill="none" xmlns="http://www.w3.org/2000/svg">
<path d="M1.00016 0.5H13.0002C13.177 0.5 13.3465 0.570238 13.4716 0.695262C13.5966 0.820286 13.6668 0.989856 13.6668 1.16667V11.8333C13.6668 12.0101 13.5966 12.1797 13.4716 12.3047C13.3465 12.4298 13.177 12.5 13.0002 12.5H1.00016C0.823352 12.5 0.653782 12.4298 0.528758 12.3047C0.403734 12.1797 0.333496 12.0101 0.333496 11.8333V1.16667C0.333496 0.989856 0.403734 0.820286 0.528758 0.695262C0.653782 0.570238 0.823352 0.5 1.00016 0.5ZM12.3335 3.32533L7.04816 8.05867L1.66683 3.31067V11.1667H12.3335V3.32533ZM2.0075 1.83333L7.04083 6.27467L12.0015 1.83333H2.0075Z" fill="#5A5C6A"/>
</svg>
