<svg width="60" height="60" viewBox="0 0 60 60" fill="none" xmlns="http://www.w3.org/2000/svg">
<circle cx="30" cy="30" r="30" fill="#FBEBFF"/>
<g clip-path="url(#clip0_1_344)">
<path fill-rule="evenodd" clip-rule="evenodd" d="M24.6553 30.5324C25.164 30.5962 25.5609 30.6461 26.1976 30.7266C26.1511 29.9907 26.1227 29.5334 26.0814 28.8774C25.4179 29.415 24.9064 29.7526 24.6553 30.5324Z" fill="#C06BD7"/>
<path fill-rule="evenodd" clip-rule="evenodd" d="M20.0292 26.4701C19.3387 27.8497 19.8608 29.0385 21.3364 29.4052C22.5828 29.7148 23.8155 29.5578 24.7274 28.6494C25.8876 27.4938 26.8202 26.1382 27.3597 24.601C25.2396 22.472 23.9894 22.8677 22.1835 23.7324C21.8509 23.8916 21.7523 23.7765 21.4174 23.9312C21.4385 23.1388 21.6432 22.9337 22.3496 22.6659C22.8105 22.4912 23.274 22.3216 23.7941 22.1286C23.4186 21.6653 23.1411 21.233 22.7769 20.8927C22.1703 20.3258 21.4537 19.9269 20.5968 19.8887C20.1812 19.8701 19.7999 20.0485 19.782 20.4945C19.7286 21.8099 19.8623 23.102 20.4374 24.3012C20.7692 24.2311 21.1368 24.7266 21.0089 24.8974C20.6015 25.6776 20.4226 25.6833 20.0292 26.4701Z" fill="#C06BD7"/>
<path fill-rule="evenodd" clip-rule="evenodd" d="M18.338 31.2999C19.4019 31.5753 20.2424 31.1527 21.0643 30.5527C20.2398 30.1206 19.4737 29.7192 18.6304 29.277C18.5037 29.9327 18.0433 30.5005 18.338 31.2999Z" fill="#C06BD7"/>
<path fill-rule="evenodd" clip-rule="evenodd" d="M29.3151 21.1088C28.0476 20.8646 27.0445 21.5639 25.751 22.0844C26.8134 22.578 27.6999 22.9893 28.5674 23.3926C29.2952 22.4663 29.3018 22.4678 29.3151 21.1088Z" fill="#C06BD7"/>
<path fill-rule="evenodd" clip-rule="evenodd" d="M18.3047 27.8485C18.6174 27.0595 18.9319 26.2664 19.2614 25.4355C18.4715 24.7119 17.3883 25.4322 16.4437 24.7222C16.3794 27.1222 16.7648 27.4385 18.3047 27.8485Z" fill="#C06BD7"/>
<path fill-rule="evenodd" clip-rule="evenodd" d="M34.6764 16.4063C34.2235 16.2175 33.7026 16.123 33.2102 16.1107C31.3545 16.064 29.5459 16.4335 27.7299 16.7679C26.5846 16.9789 25.5276 17.3731 24.4793 17.8541C23.7503 18.1885 23.2333 18.6718 22.8808 19.4128C23.6306 19.9579 24.1459 20.7314 25.022 20.9976C28.0348 19.9649 29.8071 19.6026 30.8983 19.793C30.9279 19.8467 30.9876 19.9033 30.9833 19.9544C30.8434 21.6369 29.7962 23.9883 28.7042 25.2523C28.0367 26.0248 27.5299 26.8779 27.5167 27.9742C27.5042 28.9877 27.4067 30.0046 27.28 31.0113C27.1561 32.0023 26.59 32.3075 25.6676 31.9764C24.7724 31.6549 23.873 31.3457 23.245 31.1259C21.4411 31.7566 19.8915 32.3292 18.3202 32.8365C17.3612 33.1457 16.9939 32.8759 16.9277 31.9142C16.8833 31.268 16.8848 30.6189 16.8661 29.9709C16.6244 30.7904 16.5608 31.61 16.5967 32.4255C16.6158 32.8576 16.815 33.2799 16.9199 33.7097C17.176 34.7599 17.4571 35.8066 17.6688 36.8662C18.1172 39.1102 19.3378 40.6875 21.5288 41.4429C23.0937 41.9821 24.6574 42.5275 26.2415 43.0051C28.0434 43.548 29.8605 43.783 31.6418 42.8819C31.811 42.7964 31.9982 42.7253 32.1845 42.6975C34.8056 42.3058 36.878 40.8675 38.9478 39.3303C40.7466 37.994 42.1605 36.4225 42.8908 34.3101C44.6915 29.1016 41.0822 24.3063 40.3407 22.267C39.3298 19.487 37.4043 17.538 34.6764 16.4063Z" fill="#C06BD7"/>
</g>
<defs>
<clipPath id="clip0_1_344">
<rect width="27.3888" height="28" fill="white" transform="translate(16 16)"/>
</clipPath>
</defs>
</svg>
