<svg width="60" height="60" viewBox="0 0 60 60" fill="none" xmlns="http://www.w3.org/2000/svg">
<circle cx="30" cy="30" r="30" fill="#FFF9E4"/>
<g clip-path="url(#clip0_1_260)">
<path fill-rule="evenodd" clip-rule="evenodd" d="M30.9386 42.2449C30.4229 42.4725 29.7764 42.7911 30.2087 43.7116C31.8066 43.8081 33.4993 44.578 35.3419 43.105C32.5394 41.7513 32.2475 41.6662 30.9386 42.2449Z" fill="#FFD751"/>
<path fill-rule="evenodd" clip-rule="evenodd" d="M37.7629 21.8923C36.2184 20.49 34.4897 20.2263 32.4226 20.6414C30.8836 23.2951 32.1549 25.4869 33.4608 27.6149C34.3303 27.6945 35.1786 26.9204 35.5553 27.9798C35.8598 28.8371 35.2053 29.2833 34.5664 29.691C34.4276 29.7809 34.4048 30.0496 34.2737 30.3686C34.9094 32.0669 34.8624 34.1752 36.6258 35.5763C38.5514 35.0724 39.8559 34.0735 40.1023 32.0166C40.2631 30.6758 40.6194 29.3233 40.5471 27.9939C40.4209 25.645 39.5868 23.5521 37.7629 21.8923ZM35.9665 23.1691C35.9259 23.5934 35.5696 23.988 35.2171 24.663C34.6051 24.0316 34.0785 23.682 33.8415 23.1911C33.5998 22.6897 34.299 21.9633 34.919 21.9171C35.5461 21.8708 36.0435 22.3695 35.9665 23.1691ZM37.4876 27.5182C37.7693 27.2739 38.0353 27.0117 38.2974 26.7673C39.003 27.2856 39.0562 27.8667 38.5532 28.3576C38.3382 28.5671 37.7575 28.6303 37.4796 28.489C37.0811 28.287 37.1053 27.851 37.4876 27.5182ZM39.2642 32.2391C39.2203 32.9152 38.6842 33.0168 38.142 32.9615C37.8478 32.932 37.5581 32.8022 37.2757 32.6954C37.1909 32.6621 37.088 32.5616 37.074 32.478C37.0449 32.3006 37.0645 31.955 37.0724 31.955C37.9647 31.9319 37.6743 31.1848 37.8485 30.7257C37.8704 30.6653 38.0275 30.6563 38.1223 30.6245C38.678 30.6539 39.3121 31.4857 39.2642 32.2391Z" fill="#FFD751"/>
<path fill-rule="evenodd" clip-rule="evenodd" d="M33.7347 16.0069C30.4112 15.9527 27.0563 16.3117 23.7572 16.7823C21.0883 17.164 19.2251 18.79 18.3619 21.4759C17.2019 25.0819 15.9888 28.6636 16.6354 32.5502C16.7029 32.9551 16.6841 33.3921 16.6197 33.801C16.3679 35.422 17.1275 36.6046 18.1523 37.7476C20.0288 39.8418 22.3634 41.1649 24.9602 42.1341C26.3493 42.652 27.5766 42.6678 28.7569 41.6263C30.0376 40.4962 31.5805 39.892 33.2269 39.5978C34.2801 40.1914 35.2681 40.7482 36.3229 41.3423C37.5926 39.2339 40.1345 40.5143 41.7362 39.1645C44.7176 34.5862 44.9271 29.601 43.6824 24.4069C42.4731 19.3547 38.8554 16.0904 33.7347 16.0069ZM42.3004 31.3711C41.9167 34.9527 40.0482 36.9185 36.4587 37.7822C36.1581 37.8544 35.8599 37.934 35.4612 38.0368C33.9779 37.0715 33.3196 35.5633 32.9688 33.9152C32.2995 30.7592 31.322 27.7197 29.8243 24.8554C29.8136 24.8461 29.8025 24.837 29.7918 24.8277C30.0631 28.0506 30.3558 31.2712 30.5918 34.4964C30.6522 35.3215 30.5839 36.1675 30.4732 36.9903C30.3508 37.8928 29.7741 38.4751 28.8511 38.8055C25.6243 37.3235 22.4843 35.6868 20.0924 32.9201C17.9429 30.4324 17.261 27.6555 18.4091 24.5075C18.6241 23.9158 18.7536 23.2922 18.9984 22.715C19.1577 22.3423 19.3915 21.8165 19.7 21.7251C20.8034 21.4014 21.5457 20.4589 22.5205 20.0901C23.5461 19.7003 24.7947 19.7958 25.9389 19.842C27.3428 19.8997 28.2611 20.6994 28.6063 22.0852C28.8514 23.0687 28.9637 24.1069 29.7918 24.8277C29.7906 24.8134 29.7894 24.7991 29.7882 24.7849L29.855 24.8814C29.5426 22.8026 30.0306 20.9462 31.5697 19.2339C32.8881 18.7352 34.4293 18.8364 35.8961 19.2954C39.5146 20.4282 41.7143 22.9325 42.2864 26.675C42.5217 28.2072 42.4676 29.8208 42.3004 31.3711Z" fill="#FFD751"/>
<path fill-rule="evenodd" clip-rule="evenodd" d="M28.2897 27.6482C27.7255 25.767 27.1612 23.8863 26.6235 22.0968C24.711 20.9948 23.0027 21.0981 21.6278 22.5801C20.3165 23.9958 19.538 25.6799 19.9499 27.7533C20.4724 30.3699 21.7735 32.3827 24.127 33.6823C24.4061 33.1927 24.636 32.6544 25.0139 32.257C25.2126 32.0499 25.9298 31.9702 26.0327 32.1103C26.2908 32.4627 26.5198 33.0191 26.4234 33.4115C26.2397 34.1482 25.5568 34.3121 24.8847 34.407C25.9286 35.179 26.9129 36.0919 28.5101 36.0213C28.5101 33.9384 28.5101 31.9753 28.5101 29.9993C27.8463 29.9118 27.2898 29.8388 26.8065 29.7744C26.3372 28.2971 27.3339 28.0401 28.2897 27.6482ZM24.2983 29.5829C24.0786 30.0766 23.7161 30.4867 23.0844 30.1743C22.4471 29.8604 22.1246 29.12 22.4872 28.6314C22.7814 28.2344 23.2586 27.9734 23.6157 27.6853C24.5832 28.1519 24.6312 28.8358 24.2983 29.5829ZM24.2701 26.0218C23.6439 26.1646 22.9807 25.9794 22.7642 25.3056C22.5279 24.5702 23.1848 24.2708 23.6862 23.944C23.7702 23.8903 23.8714 23.8643 24.1258 23.7592C24.617 24.0598 25.1945 24.4148 26.3355 25.1169C25.3154 25.5767 24.8147 25.8969 24.2701 26.0218Z" fill="#FFD751"/>
</g>
<defs>
<clipPath id="clip0_1_260">
<rect width="29.7569" height="28" fill="white" transform="translate(15 16)"/>
</clipPath>
</defs>
</svg>
