<svg width="60" height="60" viewBox="0 0 60 60" fill="none" xmlns="http://www.w3.org/2000/svg">
<circle cx="30" cy="30" r="30" fill="#E1FFD7"/>
<g clip-path="url(#clip0_1_277)">
<path d="M22.1463 41.1267C23.3524 36.9353 30.3481 29.5175 34.9616 27.9495C35.1426 27.8892 35.3235 28.0701 35.2632 28.251C32.8207 35.6689 24.4983 40.5236 22.4779 41.3981C22.297 41.4584 22.0859 41.3076 22.1463 41.1267Z" fill="#72DF4B"/>
<path d="M21.6337 36.3925C21.2116 37.3876 20.8497 38.5636 20.7593 39.5285C20.7593 39.5888 20.6387 39.619 20.6387 39.5285C19.8848 36.8448 21.3925 32.9852 24.6491 29.9999C27.6645 27.2258 31.3734 26.0196 33.9667 26.683C34.027 26.7132 34.027 26.8036 33.9365 26.8036C27.8153 26.9242 23.5334 31.9298 21.6337 36.3925Z" fill="#72DF4B"/>
<path d="M21.7544 40.4331C21.7242 40.5537 21.5433 40.5537 21.5132 40.4331C21.2719 39.6793 21.3624 38.6239 22.2067 36.6036C24.0461 32.2614 28.2676 27.3765 34.2682 27.4368C34.3285 27.4368 34.3587 27.5273 34.2984 27.5574C29.6547 29.427 23.2922 36.2719 21.7544 40.4331Z" fill="#72DF4B"/>
<path d="M23.0509 41.7902C22.9906 41.7902 22.9906 41.6997 23.0208 41.6696C25.4331 40.373 32.5192 37.1465 35.7759 28.5527C35.806 28.4622 35.9266 28.4924 35.9266 28.5527C36.982 33.6487 32.0971 38.0813 30.1069 39.408C27.3328 41.2776 24.438 42.0616 23.0509 41.7902Z" fill="#72DF4B"/>
<path d="M33.002 39.1366C30.0771 41.7902 26.5792 43.0265 23.986 42.5138C23.9558 42.5138 23.9558 42.4535 23.986 42.4234C25.7651 42.3028 28.2377 41.368 30.4389 39.9206C32.4592 38.5637 36.9823 34.8849 36.6506 28.9748C36.6506 28.9446 36.7109 28.9145 36.7109 28.9446C38.0075 31.6585 36.53 35.9102 33.002 39.1366Z" fill="#72DF4B"/>
<path d="M20.1288 43.4525C20.4938 43.7937 21.2045 43.6265 21.7163 43.0791C22.2281 42.5316 22.3471 41.8113 21.9821 41.4701C21.6171 41.1289 20.9064 41.2961 20.3946 41.8436C19.8829 42.391 19.7639 43.1114 20.1288 43.4525Z" fill="#72DF4B"/>
<path d="M40.7815 23.2756C39.907 22.7931 38.5501 22.4615 37.4344 22.4615C37.2535 22.4615 37.0725 22.4615 36.9218 22.4313C36.8313 22.2202 36.771 21.9187 36.8313 21.7378C36.9519 21.4061 36.8916 20.1999 36.7107 19.8079C36.5298 19.4159 36.2885 18.1495 35.9569 17.6368C35.6553 17.1242 35.3236 17.6067 35.2332 17.7575C35.1427 17.9082 35.0824 17.9384 34.9919 17.2147C34.9015 16.491 33.2129 16.0688 32.7002 16.2498C32.1876 16.4608 32.4289 16.3704 32.0972 17.3353C31.7655 18.3002 32.9415 19.3255 33.1525 19.7476C33.3636 20.1698 32.459 19.4461 32.1273 19.0541C31.7655 18.6922 30.9513 17.9987 30.2276 17.7575C29.5039 17.5162 28.3882 18.3605 28.147 18.9636C27.8756 19.5667 28.3882 20.2602 28.9612 21.4664C29.5341 22.6725 31.9464 22.371 32.2781 22.5218C32.6098 22.6424 30.6498 22.9138 30.3784 23.0042C29.6849 23.2756 29.7452 23.939 30.1975 24.6928C30.6498 25.4467 31.6449 25.3864 32.0067 25.3864C32.3384 25.3864 32.7002 24.8436 32.6399 25.3562C32.5796 25.8387 33.3335 25.8085 34.2682 25.507C35.203 25.2055 36.3489 23.9993 36.4695 23.4264C36.4996 23.2756 36.5599 23.1248 36.6504 23.0344C36.9218 23.0645 37.2233 23.0645 37.4947 23.0645C38.3089 23.0645 39.3039 23.2756 40.0578 23.5771C36.7107 23.9088 35.6252 26.3211 35.3538 27.1353C35.4744 27.2258 35.595 27.3162 35.7156 27.4067C35.7759 27.467 35.8362 27.4971 35.8664 27.5575C35.8664 27.5273 36.6202 24.3008 40.5704 24.1802C40.7815 24.1802 40.9624 24.0295 41.0227 23.8184C41.083 23.5771 40.9925 23.3962 40.7815 23.2756ZM35.3236 22.6424C35.0824 22.6122 34.811 22.5519 34.5095 22.4615C34.3587 22.4011 34.2079 22.3408 34.0572 22.2805C33.9064 22.1901 33.7858 22.1298 33.635 22.0393C33.0922 21.7076 32.5495 21.3759 32.1575 21.1045C31.9464 20.9839 31.7956 20.8633 31.675 20.7728C31.5845 20.7125 31.5242 20.6522 31.4941 20.6522C31.5242 20.6522 31.5845 20.6824 31.7052 20.7427C31.8258 20.803 32.0369 20.8633 32.2479 20.9839C32.6701 21.1648 33.243 21.4664 33.8159 21.7981C33.9667 21.8885 34.0873 21.979 34.2079 22.0393C34.3285 22.0996 34.4793 22.1901 34.5999 22.2504C34.8713 22.371 35.1125 22.4615 35.3538 22.5218C35.595 22.5821 35.7759 22.6424 35.8965 22.6725C36.0473 22.7027 36.1076 22.7328 36.1076 22.7328C36.1076 22.7328 35.8061 22.7027 35.3236 22.6424Z" fill="#72DF4B"/>
</g>
<defs>
<clipPath id="clip0_1_277">
<rect width="30.1538" height="28" fill="white" transform="translate(15 16)"/>
</clipPath>
</defs>
</svg>
