<svg width="60" height="60" viewBox="0 0 60 60" fill="none" xmlns="http://www.w3.org/2000/svg">
<circle cx="30" cy="30" r="30" fill="#FFE9EA"/>
<g clip-path="url(#clip0_1_302)">
<path fill-rule="evenodd" clip-rule="evenodd" d="M36.4727 32.4513L36.4716 32.3694C36.4619 32.3731 36.4521 32.3767 36.4424 32.3804C36.4458 32.3883 36.4495 32.3961 36.4529 32.404L36.4727 32.4513Z" fill="#EA000F"/>
<path fill-rule="evenodd" clip-rule="evenodd" d="M21.3501 25.9089C21.3503 25.921 21.3506 25.933 21.3506 25.9451C21.3584 25.9479 21.3656 25.9512 21.3733 25.9542C21.375 25.9432 21.3767 25.9322 21.3788 25.921C21.369 25.9172 21.3597 25.9129 21.3501 25.9089Z" fill="#EA000F"/>
<path fill-rule="evenodd" clip-rule="evenodd" d="M25.7617 34.1662C26.8552 35.7797 28.3655 36.9018 30.0341 37.825C30.7339 38.2124 31.4426 38.6757 32.3181 38.5603C31.4855 37.7615 30.6354 36.9802 29.8283 36.1571C29.0061 35.3195 28.2218 34.4453 27.4338 33.575C26.8444 32.9242 26.2729 32.2568 25.6998 31.5919C25.3545 31.1913 25.0375 30.7565 24.406 30.6362C24.0589 31.2762 23.9699 31.8308 24.433 32.4214C24.6299 32.6728 24.7386 32.9939 24.8858 33.2848C25.186 33.5731 25.5335 33.8293 25.7617 34.1662Z" fill="#EA000F"/>
<path fill-rule="evenodd" clip-rule="evenodd" d="M25.4261 25.4847C26.1912 25.0853 26.8991 24.6618 27.6516 24.3427C28.0895 24.1575 28.6067 24.0117 29.0807 24.2721C30.8033 25.22 32.5801 26.0886 34.026 27.4626C34.4038 27.8214 34.7417 28.2217 35.078 28.5814C37.1411 26.8281 37.9518 24.442 38.8066 22.0876C39.1782 21.0639 38.7645 20.1553 38.2231 19.315C38.0776 19.0886 37.754 18.8233 37.523 18.8327C36.8024 18.8618 36.37 18.3603 35.8226 18.0709C33.9466 17.079 32.0008 16.2695 29.8728 16.0361C28.8353 15.9224 27.7442 16.0202 26.9677 16.7633C25.6613 18.0135 24.7759 19.5189 24.8499 21.4311C24.8716 21.9709 24.8878 22.5149 24.8469 23.0523C24.7782 23.956 25.0556 24.7544 25.4261 25.4847ZM36.6166 21.7976C36.8523 21.742 37.0876 21.963 37.037 22.2409C36.9997 22.4448 36.8553 22.6288 36.6857 22.9672C36.4571 22.6571 36.2659 22.5002 36.2178 22.3076C36.1504 22.0346 36.3525 21.8596 36.6166 21.7976ZM35.6957 24.1359C35.7931 23.9031 36.0085 23.7197 36.2724 23.3882C36.4625 23.756 36.6406 23.9732 36.6815 24.2137C36.7308 24.5048 36.415 24.774 36.1492 24.7485C35.8941 24.7237 35.5958 24.3746 35.6957 24.1359ZM33.4997 26.1301C33.2567 26.1529 32.906 25.8034 32.9957 25.5688C33.0793 25.3499 33.3175 25.1902 33.5995 24.8819C33.7373 25.2309 33.8708 25.4236 33.8756 25.6197C33.8816 25.8432 33.8005 26.1012 33.4997 26.1301ZM33.8347 20.5769C34.0404 20.112 34.4554 20.2663 34.9005 20.5111C34.7701 20.8106 34.6479 21.0897 34.5258 21.3688C34.0657 21.2184 33.6164 21.071 33.8347 20.5769ZM33.1617 22.7437C33.3843 22.7855 33.5707 23.015 33.8738 23.2339C33.6026 23.4971 33.4473 23.734 33.2291 23.8351C33.0113 23.9359 32.7003 23.6084 32.6763 23.3212C32.6528 23.0475 32.8976 22.6938 33.1617 22.7437ZM31.3302 19.8133C31.5107 19.6984 31.7596 19.6569 31.9791 19.6546C32.0604 19.6537 32.23 19.8771 32.2095 19.964C32.1403 20.2668 32.0056 20.5549 31.8534 20.9621C31.5684 20.7306 31.362 20.6127 31.2261 20.4395C31.0571 20.223 31.1107 19.952 31.3302 19.8133ZM30.9645 22.3465C31.0782 22.6012 30.8177 22.9933 30.5548 22.9515C30.3631 22.9209 30.0533 22.7077 30.0551 22.5805C30.0599 22.3482 30.2565 22.12 30.4418 21.7537C30.6842 22.0198 30.8809 22.1582 30.9645 22.3465ZM29.3887 17.4616C29.4266 17.2243 29.6214 17.012 29.7219 16.8309C30.1916 16.8751 30.4942 17.2815 30.4755 17.6929C30.4629 17.9855 30.2163 18.183 29.8698 18.1791C29.509 18.1746 29.3129 17.9359 29.3887 17.4616ZM28.5796 18.8401C28.7673 18.888 28.9158 19.0897 29.1654 19.2898C28.9141 19.5553 28.7559 19.8717 28.5502 19.9057C28.2163 19.9607 28.0943 19.6055 28.0286 19.3225C27.9643 19.0446 28.2651 18.7596 28.5796 18.8401ZM27.7165 21.4746C27.7393 21.3874 27.9511 21.2905 28.0648 21.3032C28.1773 21.3158 28.3168 21.4403 28.3709 21.5516C28.4515 21.7176 28.4684 21.9148 28.5255 22.1555C28.4298 22.2866 28.3144 22.5552 28.2236 22.5471C28.0202 22.529 27.7111 22.4141 27.6593 22.2649C27.5793 22.0322 27.6497 21.7309 27.7165 21.4746Z" fill="#EA000F"/>
<path fill-rule="evenodd" clip-rule="evenodd" d="M24.886 33.2847C24.8722 33.2715 24.8583 33.2582 24.8447 33.2449C24.845 33.2588 24.846 33.2724 24.8466 33.2862C24.8617 33.2899 24.8766 33.2937 24.8922 33.297C24.89 33.293 24.8881 33.2888 24.886 33.2847Z" fill="#EA000F"/>
<path fill-rule="evenodd" clip-rule="evenodd" d="M37.5379 39.1966C38.0877 38.7578 38.5629 38.3791 39.0556 37.9861C38.7722 37.2306 38.5226 36.5525 38.0451 35.9426C37.5916 36.039 37.1723 36.1675 36.7447 36.2069C36.4043 36.2385 36.1979 36.0358 36.2563 35.6181C36.6695 35.3567 37.1044 35.0821 37.5927 34.7736C37.304 34.2184 37.064 33.758 36.8018 33.2546C36.5378 33.3565 36.3634 33.4314 36.1835 33.4916C35.8184 33.6136 35.4551 33.7487 35.0804 33.8313C34.9871 33.8518 34.8007 33.717 34.755 33.6115C34.7069 33.5 34.7303 33.305 34.8032 33.2055C34.9126 33.0554 35.0762 32.9192 35.2458 32.8431C35.6357 32.6687 36.0422 32.5315 36.4425 32.3803C36.026 31.4208 35.4641 30.5599 34.7212 29.8208C34.7218 29.8224 34.7225 29.8239 34.7231 29.8255C34.7035 29.8192 34.6839 29.8128 34.6642 29.8064C34.2777 30.8157 33.4223 31.0849 32.3768 31.3647C32.4201 31.0435 32.39 30.8675 32.4609 30.8053C32.9572 30.3674 33.4738 29.953 33.9376 29.5696C34.249 29.6713 34.461 29.7403 34.6642 29.8064C34.6681 29.796 34.6723 29.7861 34.6762 29.7756C34.6914 29.7905 34.7061 29.8058 34.7212 29.8208C34.2577 28.6537 33.3698 27.9138 32.269 27.3891C32.2816 27.4016 32.2942 27.414 32.307 27.4262C32.2942 27.4255 32.2809 27.4236 32.2676 27.4216C32.2717 27.6548 32.3431 27.9271 32.2433 28.0989C31.8992 28.6887 31.504 29.2558 30.8912 29.6113C30.8286 29.648 30.7173 29.602 30.6289 29.5939C30.5976 29.556 30.5314 29.5061 30.5399 29.482C30.8412 28.6078 31.2039 27.7781 32.1609 27.4202C32.1919 27.4086 32.2301 27.4159 32.2676 27.4216C32.2674 27.4104 32.2671 27.3992 32.2673 27.3883C32.2679 27.3885 32.2685 27.3888 32.269 27.3891C32.0453 27.1674 31.8441 26.9073 31.5817 26.7501C30.958 26.3759 30.2999 26.0593 29.5619 25.6695C29.2569 26.3185 28.9778 26.9284 28.6831 27.5302C28.5736 27.7533 28.4166 27.9429 28.0353 27.8569C27.8548 26.8505 28.5105 26.0753 28.8695 25.1478C28.0113 25.096 27.2882 25.2684 26.6862 25.8566C26.5124 26.0264 26.3404 26.2388 26.1263 26.3158C25.8772 26.4051 25.5825 26.367 25.218 26.3895C25.1026 27.7533 23.9952 28.2319 23.0714 28.8685C22.7694 28.6619 22.5806 28.4787 22.8037 28.2285C23.0966 27.9004 23.4461 27.6238 23.7468 27.302C24.1354 26.8851 24.3387 26.4069 24.1534 25.7979C23.5532 26.2133 23.7263 27.2105 22.8398 27.3296C22.5505 27.1522 22.2636 26.9768 21.9767 26.8011C21.9377 26.4002 21.7566 26.1031 21.3732 25.9541C21.3043 26.3983 21.559 26.6576 21.9148 26.8589C22.0193 27.2637 22.124 27.6686 22.2413 28.1221C21.6314 28.2543 21.1255 28.3645 20.4856 28.5034C21.0366 29.0721 21.7475 28.6417 22.2474 29.0718C22.3093 29.3319 22.2834 29.5511 21.9502 29.7346C21.0306 30.2405 20.2535 30.9038 19.824 31.8996C19.551 32.5324 19.3747 33.1667 19.718 33.8313C20.3665 33.721 20.9373 33.6235 21.5394 33.521C21.6584 33.7853 21.7486 33.9862 21.875 34.2664C21.0781 34.5163 20.3893 34.7322 19.6441 34.9663C19.8252 35.602 19.7717 36.2603 20.2636 36.8236C20.9073 36.5626 21.5268 36.3118 22.216 36.0324C22.3225 36.196 22.441 36.3773 22.5962 36.6143C21.8305 37.0296 21.0708 37.2251 20.4218 37.7391C21.045 38.5553 21.5574 39.3165 22.2762 39.8121C23.2001 39.73 23.1814 38.7562 23.757 38.4233C24.2244 38.8124 24.2875 38.9096 24.1834 39.099C23.9104 39.5955 23.4388 39.9868 23.3294 40.6193C24.551 41.3007 25.846 41.4748 27.1728 41.6268C27.4363 41.1885 27.6684 40.8024 27.8928 40.4294C28.825 40.8427 27.8633 41.4364 28.1731 41.8692C28.8269 42.1623 28.8269 42.1626 29.7387 42.0502C29.8138 41.852 29.8711 41.6138 29.9919 41.4153C30.0533 41.3155 30.2422 41.2246 30.3534 41.2439C30.4707 41.2643 30.6367 41.4093 30.6542 41.5197C30.6968 41.7967 30.668 42.0848 30.668 42.4186C31.1059 42.5383 31.5781 42.6583 32.0447 42.7966C33.9977 43.3761 35.994 43.5148 38.0198 43.4363C38.9233 43.4013 39.4826 42.9857 39.7821 42.1482C40.1322 41.1678 40.0408 40.2364 39.5915 39.3059C38.9039 39.4591 38.2568 39.7782 37.5379 39.1966ZM25.4935 40.9932C25.3828 41.0418 25.2222 40.9785 24.9581 40.9559C25.3088 40.2338 25.5043 39.5189 26.0492 38.9187C26.2224 39.064 26.3932 39.135 26.4125 39.2348C26.5413 39.8967 26.1076 40.7231 25.4935 40.9932ZM34.8019 40.6226C32.8844 40.0371 30.935 39.5204 29.2244 38.4216C27.7773 37.4916 26.3801 36.5181 25.4267 35.0058C25.0754 34.4476 24.8702 33.9148 24.8463 33.2864C24.0717 33.0983 23.8511 32.4629 23.7697 31.7933C23.6439 30.7606 23.7697 29.7501 24.347 28.7802C24.7789 28.7615 25.2306 28.9961 25.7082 28.7314C26.3055 28.4003 26.9322 28.532 27.5385 28.847C28.1978 29.19 28.8233 29.5669 29.3087 30.1404C30.259 31.2624 31.2352 32.3649 32.1416 33.5213C32.529 34.0155 32.8308 34.6003 33.0637 35.1868C33.4143 36.0688 33.8985 36.846 34.5216 37.5542C35.1207 38.2348 35.4756 39.0404 35.5604 39.9451C35.6 40.3688 35.1832 40.739 34.8019 40.6226Z" fill="#EA000F"/>
<path fill-rule="evenodd" clip-rule="evenodd" d="M32.6873 36.3404C31.8513 33.985 30.0805 32.327 28.4577 30.5608C27.9465 30.0047 27.2397 29.7304 26.5143 29.5677C26.1349 29.4827 25.7192 29.4814 25.5063 30.0162C26.1174 31.0489 26.9065 31.9694 27.7914 32.8283C28.599 33.6127 29.3984 34.4174 30.104 35.2923C30.9792 36.3767 32.0468 37.2285 33.127 38.0747C33.2976 38.2082 33.5379 38.2526 33.7512 38.3314C33.68 38.1248 33.6295 37.9062 33.5221 37.7202C33.2545 37.2528 32.8629 36.8363 32.6873 36.3404Z" fill="#EA000F"/>
</g>
<defs>
<clipPath id="clip0_1_302">
<rect width="21.342" height="28" fill="white" transform="translate(19 16)"/>
</clipPath>
</defs>
</svg>
