<svg width="289" height="62" viewBox="0 0 289 62" fill="none" xmlns="http://www.w3.org/2000/svg">
<path d="M144.722 25.5086V28.2659H135.855V13.3868H139.269V25.5086H144.722Z" fill="#333333"/>
<path d="M152.281 21.6995C152.281 21.4476 152.247 21.2025 152.18 20.9642C152.119 20.7259 152.015 20.5149 151.867 20.331C151.725 20.1404 151.537 19.9872 151.301 19.8715C151.066 19.7557 150.779 19.6979 150.443 19.6979C149.85 19.6979 149.386 19.8715 149.049 20.2187C148.713 20.5591 148.491 21.0527 148.383 21.6995H152.281ZM148.342 23.5377C148.443 24.4227 148.709 25.0661 149.14 25.4678C149.571 25.8626 150.126 26.0601 150.806 26.0601C151.17 26.0601 151.483 26.0158 151.745 25.9273C152.008 25.8388 152.24 25.7401 152.442 25.6312C152.651 25.5222 152.839 25.4235 153.008 25.335C153.183 25.2465 153.365 25.2022 153.553 25.2022C153.802 25.2022 153.991 25.2942 154.119 25.478L155.027 26.6115C154.704 26.986 154.354 27.2923 153.977 27.5306C153.607 27.7621 153.223 27.9459 152.826 28.0821C152.436 28.2114 152.042 28.2999 151.644 28.3476C151.254 28.4021 150.88 28.4293 150.524 28.4293C149.79 28.4293 149.1 28.3102 148.454 28.0719C147.814 27.8268 147.252 27.4659 146.767 26.9894C146.289 26.5128 145.909 25.9205 145.626 25.2125C145.35 24.5044 145.212 23.6806 145.212 22.7411C145.212 22.0331 145.33 21.3625 145.565 20.7293C145.808 20.0962 146.151 19.5413 146.595 19.0647C147.047 18.5882 147.588 18.2103 148.221 17.9312C148.861 17.652 149.581 17.5125 150.382 17.5125C151.076 17.5125 151.708 17.6214 152.281 17.8393C152.86 18.0571 153.354 18.3737 153.765 18.789C154.182 19.2043 154.506 19.7149 154.734 20.3208C154.97 20.9199 155.088 21.6007 155.088 22.3633C155.088 22.6015 155.078 22.7956 155.058 22.9454C155.037 23.0951 155 23.2143 154.947 23.3028C154.893 23.3913 154.819 23.4526 154.724 23.4866C154.637 23.5206 154.522 23.5377 154.381 23.5377H148.342Z" fill="#333333"/>
<path d="M162.057 23.9564C161.431 23.9836 160.916 24.0381 160.512 24.1198C160.108 24.2014 159.788 24.3036 159.553 24.4261C159.317 24.5487 159.152 24.6882 159.058 24.8448C158.97 25.0014 158.926 25.1716 158.926 25.3554C158.926 25.7163 159.024 25.9716 159.219 26.1213C159.414 26.2643 159.701 26.3358 160.078 26.3358C160.482 26.3358 160.835 26.2643 161.138 26.1213C161.441 25.9784 161.747 25.7469 162.057 25.4269V23.9564ZM156.422 19.1464C157.055 18.5813 157.755 18.1626 158.523 17.8903C159.297 17.6112 160.125 17.4716 161.007 17.4716C161.639 17.4716 162.208 17.5771 162.713 17.7882C163.225 17.9924 163.656 18.2818 164.006 18.6562C164.363 19.0239 164.635 19.463 164.824 19.9736C165.012 20.4842 165.106 21.0425 165.106 21.6484V28.2659H163.672C163.376 28.2659 163.151 28.225 162.996 28.1434C162.848 28.0617 162.723 27.8915 162.622 27.6327L162.4 27.0506C162.138 27.2753 161.885 27.4727 161.643 27.643C161.4 27.8132 161.148 27.9595 160.885 28.0821C160.63 28.1978 160.354 28.2829 160.057 28.3374C159.768 28.3987 159.445 28.4293 159.088 28.4293C158.61 28.4293 158.176 28.368 157.785 28.2455C157.395 28.1161 157.062 27.9289 156.786 27.6838C156.516 27.4387 156.308 27.1357 156.16 26.7749C156.011 26.4073 155.937 25.9852 155.937 25.5086C155.937 25.1274 156.032 24.7427 156.22 24.3546C156.409 23.9598 156.735 23.6023 157.2 23.2824C157.664 22.9556 158.29 22.6832 159.078 22.4654C159.866 22.2475 160.859 22.125 162.057 22.0977V21.6484C162.057 21.0289 161.929 20.5829 161.673 20.3106C161.424 20.0315 161.067 19.8919 160.603 19.8919C160.232 19.8919 159.929 19.9328 159.694 20.0145C159.458 20.0962 159.246 20.1881 159.058 20.2902C158.876 20.3923 158.698 20.4842 158.523 20.5659C158.347 20.6476 158.139 20.6885 157.896 20.6885C157.681 20.6885 157.499 20.634 157.351 20.5251C157.203 20.4161 157.082 20.2868 156.988 20.137L156.422 19.1464Z" fill="#333333"/>
<path d="M170.036 19.3098C170.359 18.7379 170.729 18.2886 171.147 17.9618C171.571 17.635 172.055 17.4716 172.601 17.4716C173.072 17.4716 173.456 17.584 173.752 17.8086L173.55 20.137C173.516 20.2868 173.459 20.3889 173.378 20.4434C173.304 20.4978 173.2 20.5251 173.065 20.5251C173.011 20.5251 172.941 20.5217 172.853 20.5149C172.766 20.508 172.675 20.5012 172.581 20.4944C172.486 20.4808 172.389 20.4706 172.288 20.4638C172.193 20.4502 172.106 20.4434 172.025 20.4434C171.567 20.4434 171.2 20.5659 170.924 20.811C170.655 21.0561 170.426 21.3965 170.238 21.8322V28.2659H167.107V17.6759H168.965C169.12 17.6759 169.248 17.6895 169.349 17.7167C169.457 17.7439 169.544 17.7882 169.612 17.8495C169.686 17.9039 169.74 17.9788 169.773 18.0741C169.814 18.1695 169.847 18.2852 169.874 18.4214L170.036 19.3098Z" fill="#333333"/>
<path d="M177.707 18.8196C177.909 18.629 178.118 18.452 178.333 18.2886C178.548 18.1252 178.777 17.989 179.02 17.8801C179.269 17.7644 179.535 17.6759 179.817 17.6146C180.107 17.5465 180.42 17.5125 180.757 17.5125C181.329 17.5125 181.834 17.6146 182.271 17.8188C182.716 18.0163 183.089 18.2954 183.392 18.6562C183.695 19.0103 183.924 19.4358 184.079 19.9328C184.234 20.4229 184.311 20.9574 184.311 21.5361V28.2659H181.181V21.5361C181.181 21.0187 181.063 20.617 180.827 20.331C180.592 20.0383 180.245 19.8919 179.787 19.8919C179.444 19.8919 179.121 19.9668 178.818 20.1166C178.522 20.2595 178.232 20.457 177.949 20.7089V28.2659H174.819V17.6759H176.758C177.148 17.6759 177.404 17.8529 177.525 18.2069L177.707 18.8196Z" fill="#333333"/>
<path d="M189.538 17.6759V28.2659H186.408V17.6759H189.538ZM189.861 14.7756C189.861 15.0275 189.811 15.2658 189.71 15.4905C189.609 15.7083 189.471 15.9024 189.296 16.0726C189.121 16.2359 188.915 16.3687 188.68 16.4708C188.451 16.5661 188.205 16.6138 187.943 16.6138C187.687 16.6138 187.448 16.5661 187.226 16.4708C187.003 16.3687 186.805 16.2359 186.63 16.0726C186.462 15.9024 186.327 15.7083 186.226 15.4905C186.132 15.2658 186.085 15.0275 186.085 14.7756C186.085 14.5169 186.132 14.2752 186.226 14.0505C186.327 13.8259 186.462 13.6284 186.63 13.4582C186.805 13.288 187.003 13.1553 187.226 13.06C187.448 12.9646 187.687 12.917 187.943 12.917C188.205 12.917 188.451 12.9646 188.68 13.06C188.915 13.1553 189.121 13.288 189.296 13.4582C189.471 13.6284 189.609 13.8259 189.71 14.0505C189.811 14.2752 189.861 14.5169 189.861 14.7756Z" fill="#333333"/>
<path d="M194.609 18.8196C194.811 18.629 195.02 18.452 195.235 18.2886C195.451 18.1252 195.68 17.989 195.922 17.8801C196.171 17.7644 196.437 17.6759 196.72 17.6146C197.009 17.5465 197.322 17.5125 197.659 17.5125C198.231 17.5125 198.736 17.6146 199.174 17.8188C199.618 18.0163 199.992 18.2954 200.295 18.6562C200.597 19.0103 200.826 19.4358 200.981 19.9328C201.136 20.4229 201.213 20.9574 201.213 21.5361V28.2659H198.083V21.5361C198.083 21.0187 197.965 20.617 197.73 20.331C197.494 20.0383 197.147 19.8919 196.69 19.8919C196.346 19.8919 196.023 19.9668 195.72 20.1166C195.424 20.2595 195.134 20.457 194.852 20.7089V28.2659H191.721V17.6759H193.66C194.051 17.6759 194.306 17.8529 194.428 18.2069L194.609 18.8196Z" fill="#333333"/>
<path d="M207.228 22.4143C207.746 22.4143 208.12 22.285 208.349 22.0263C208.585 21.7607 208.702 21.4203 208.702 21.005C208.702 20.5761 208.585 20.2391 208.349 19.994C208.12 19.7489 207.746 19.6264 207.228 19.6264C206.71 19.6264 206.333 19.7489 206.097 19.994C205.868 20.2391 205.754 20.5761 205.754 21.005C205.754 21.2093 205.781 21.3965 205.835 21.5667C205.895 21.7369 205.986 21.8867 206.107 22.016C206.228 22.1386 206.38 22.2373 206.562 22.3122C206.75 22.3803 206.972 22.4143 207.228 22.4143ZM209.652 28.654C209.652 28.4021 209.54 28.2216 209.318 28.1127C209.096 27.997 208.807 27.9153 208.45 27.8676C208.093 27.82 207.693 27.7927 207.248 27.7859C206.811 27.7723 206.373 27.7451 205.936 27.7042C205.74 27.8404 205.579 27.9936 205.451 28.1638C205.33 28.3272 205.269 28.5144 205.269 28.7254C205.269 28.8752 205.299 29.0114 205.36 29.1339C205.427 29.2565 205.542 29.362 205.703 29.4505C205.865 29.539 206.08 29.6071 206.35 29.6548C206.626 29.7092 206.972 29.7364 207.39 29.7364C207.841 29.7364 208.211 29.7092 208.5 29.6548C208.79 29.6003 209.019 29.5254 209.187 29.4301C209.362 29.3348 209.483 29.219 209.551 29.0829C209.618 28.9535 209.652 28.8105 209.652 28.654ZM212.742 18.0027V19.1566C212.742 19.3336 212.691 19.4732 212.59 19.5753C212.496 19.6775 212.331 19.7557 212.095 19.8102L211.338 19.9838C211.378 20.1336 211.409 20.2868 211.429 20.4434C211.456 20.6 211.469 20.7633 211.469 20.9336C211.469 21.4646 211.358 21.9412 211.136 22.3633C210.921 22.7854 210.621 23.1462 210.237 23.4457C209.86 23.7385 209.413 23.9666 208.894 24.13C208.376 24.2866 207.82 24.3648 207.228 24.3648C207.066 24.3648 206.908 24.3614 206.753 24.3546C206.599 24.341 206.447 24.3206 206.299 24.2934C206.07 24.4363 205.956 24.5963 205.956 24.7733C205.956 24.9503 206.05 25.0797 206.238 25.1614C206.427 25.2363 206.676 25.2907 206.986 25.3248C207.295 25.352 207.645 25.3724 208.036 25.3861C208.433 25.3929 208.837 25.4167 209.248 25.4575C209.658 25.4916 210.059 25.5529 210.449 25.6414C210.847 25.7299 211.2 25.8728 211.51 26.0703C211.819 26.2677 212.068 26.5332 212.257 26.8668C212.445 27.1936 212.54 27.6123 212.54 28.1229C212.54 28.5995 212.425 29.0658 212.196 29.522C211.967 29.9781 211.631 30.3832 211.186 30.7372C210.742 31.0913 210.197 31.3738 209.551 31.5849C208.904 31.8027 208.164 31.9116 207.329 31.9116C206.508 31.9116 205.798 31.8334 205.198 31.6768C204.606 31.5202 204.111 31.3125 203.714 31.0538C203.323 30.8019 203.034 30.5092 202.846 30.1756C202.657 29.842 202.563 29.4948 202.563 29.1339C202.563 28.6642 202.697 28.2727 202.967 27.9595C203.236 27.6464 203.613 27.3945 204.098 27.2038C203.842 27.0472 203.64 26.8464 203.492 26.6013C203.344 26.3562 203.27 26.0396 203.27 25.6516C203.27 25.495 203.297 25.3316 203.35 25.1614C203.404 24.9844 203.488 24.8142 203.603 24.6508C203.724 24.4806 203.872 24.3206 204.047 24.1708C204.222 24.021 204.431 23.8883 204.673 23.7725C204.128 23.4798 203.697 23.0951 203.381 22.6186C203.064 22.1352 202.906 21.5735 202.906 20.9336C202.906 20.4025 203.017 19.926 203.239 19.5038C203.461 19.0749 203.764 18.7141 204.148 18.4214C204.539 18.1218 204.996 17.8937 205.521 17.7371C206.047 17.5737 206.615 17.492 207.228 17.492C208.117 17.492 208.904 17.6623 209.591 18.0027H212.742Z" fill="#333333"/>
<path d="M227.951 25.5086V28.2659H219.085V13.3868H222.498V25.5086H227.951Z" fill="#333333"/>
<path d="M234.735 23.9564C234.109 23.9836 233.594 24.0381 233.19 24.1198C232.786 24.2014 232.466 24.3036 232.231 24.4261C231.995 24.5487 231.83 24.6882 231.736 24.8448C231.648 25.0014 231.604 25.1716 231.604 25.3554C231.604 25.7163 231.702 25.9716 231.897 26.1213C232.093 26.2643 232.379 26.3358 232.756 26.3358C233.16 26.3358 233.513 26.2643 233.816 26.1213C234.119 25.9784 234.425 25.7469 234.735 25.4269V23.9564ZM229.1 19.1464C229.733 18.5813 230.433 18.1626 231.201 17.8903C231.975 17.6112 232.803 17.4716 233.685 17.4716C234.317 17.4716 234.886 17.5771 235.391 17.7882C235.903 17.9924 236.334 18.2818 236.684 18.6562C237.041 19.0239 237.313 19.463 237.502 19.9736C237.69 20.4842 237.784 21.0425 237.784 21.6484V28.2659H236.351C236.054 28.2659 235.829 28.225 235.674 28.1434C235.526 28.0617 235.401 27.8915 235.3 27.6327L235.078 27.0506C234.816 27.2753 234.563 27.4727 234.321 27.643C234.078 27.8132 233.826 27.9595 233.564 28.0821C233.308 28.1978 233.032 28.2829 232.735 28.3374C232.446 28.3987 232.123 28.4293 231.766 28.4293C231.288 28.4293 230.854 28.368 230.463 28.2455C230.073 28.1161 229.74 27.9289 229.464 27.6838C229.194 27.4387 228.986 27.1357 228.838 26.7749C228.69 26.4073 228.615 25.9852 228.615 25.5086C228.615 25.1274 228.71 24.7427 228.898 24.3546C229.087 23.9598 229.413 23.6023 229.878 23.2824C230.342 22.9556 230.968 22.6832 231.756 22.4654C232.544 22.2475 233.537 22.125 234.735 22.0977V21.6484C234.735 21.0289 234.607 20.5829 234.351 20.3106C234.102 20.0315 233.745 19.8919 233.281 19.8919C232.91 19.8919 232.608 19.9328 232.372 20.0145C232.136 20.0962 231.924 20.1881 231.736 20.2902C231.554 20.3923 231.376 20.4842 231.201 20.5659C231.026 20.6476 230.817 20.6885 230.574 20.6885C230.359 20.6885 230.177 20.634 230.029 20.5251C229.881 20.4161 229.76 20.2868 229.666 20.137L229.1 19.1464Z" fill="#333333"/>
<path d="M246.137 20.5149C245.901 20.2493 245.646 20.0655 245.37 19.9634C245.094 19.8545 244.804 19.8 244.501 19.8C244.212 19.8 243.946 19.8579 243.703 19.9736C243.461 20.0893 243.249 20.2766 243.067 20.5353C242.892 20.7872 242.754 21.1174 242.653 21.5259C242.552 21.9343 242.502 22.4279 242.502 23.0066C242.502 23.5649 242.542 24.0346 242.623 24.4159C242.704 24.7972 242.815 25.1069 242.956 25.3452C243.104 25.5767 243.279 25.7435 243.481 25.8456C243.683 25.9477 243.909 25.9988 244.158 25.9988C244.387 25.9988 244.592 25.9784 244.774 25.9375C244.962 25.8899 245.134 25.8252 245.289 25.7435C245.444 25.6618 245.588 25.5597 245.723 25.4371C245.864 25.3078 246.002 25.1614 246.137 24.998V20.5149ZM249.267 12.9783V28.2659H247.329C246.938 28.2659 246.682 28.0889 246.561 27.7349L246.319 26.9281C246.11 27.1528 245.891 27.357 245.663 27.5408C245.434 27.7247 245.185 27.8846 244.915 28.0208C244.653 28.1502 244.367 28.2489 244.057 28.317C243.754 28.3918 243.424 28.4293 243.067 28.4293C242.522 28.4293 242.017 28.3067 241.553 28.0617C241.088 27.8166 240.688 27.4625 240.351 26.9996C240.014 26.5366 239.748 25.9716 239.553 25.3044C239.365 24.6304 239.27 23.8644 239.27 23.0066C239.27 22.2169 239.378 21.485 239.594 20.811C239.809 20.1302 240.112 19.5447 240.502 19.0545C240.9 18.5575 241.374 18.1695 241.926 17.8903C242.478 17.6112 243.088 17.4716 243.754 17.4716C244.299 17.4716 244.757 17.5499 245.127 17.7065C245.498 17.8631 245.834 18.0741 246.137 18.3397V12.9783H249.267Z" fill="#333333"/>
<path d="M257.734 20.5149C257.498 20.2493 257.243 20.0655 256.967 19.9634C256.691 19.8545 256.401 19.8 256.098 19.8C255.809 19.8 255.543 19.8579 255.3 19.9736C255.058 20.0893 254.846 20.2766 254.664 20.5353C254.489 20.7872 254.351 21.1174 254.25 21.5259C254.149 21.9343 254.099 22.4279 254.099 23.0066C254.099 23.5649 254.139 24.0346 254.22 24.4159C254.301 24.7972 254.412 25.1069 254.553 25.3452C254.701 25.5767 254.876 25.7435 255.078 25.8456C255.28 25.9477 255.506 25.9988 255.755 25.9988C255.984 25.9988 256.189 25.9784 256.371 25.9375C256.559 25.8899 256.731 25.8252 256.886 25.7435C257.041 25.6618 257.185 25.5597 257.32 25.4371C257.461 25.3078 257.599 25.1614 257.734 24.998V20.5149ZM260.864 12.9783V28.2659H258.926C258.535 28.2659 258.279 28.0889 258.158 27.7349L257.916 26.9281C257.707 27.1528 257.488 27.357 257.259 27.5408C257.031 27.7247 256.781 27.8846 256.512 28.0208C256.25 28.1502 255.964 28.2489 255.654 28.317C255.351 28.3918 255.021 28.4293 254.664 28.4293C254.119 28.4293 253.614 28.3067 253.15 28.0617C252.685 27.8166 252.284 27.4625 251.948 26.9996C251.611 26.5366 251.345 25.9716 251.15 25.3044C250.962 24.6304 250.867 23.8644 250.867 23.0066C250.867 22.2169 250.975 21.485 251.191 20.811C251.406 20.1302 251.709 19.5447 252.099 19.0545C252.497 18.5575 252.971 18.1695 253.523 17.8903C254.075 17.6112 254.684 17.4716 255.351 17.4716C255.896 17.4716 256.354 17.5499 256.724 17.7065C257.095 17.8631 257.431 18.0741 257.734 18.3397V12.9783H260.864Z" fill="#333333"/>
<path d="M269.493 21.6995C269.493 21.4476 269.459 21.2025 269.392 20.9642C269.331 20.7259 269.227 20.5149 269.079 20.331C268.937 20.1404 268.749 19.9872 268.513 19.8715C268.277 19.7557 267.991 19.6979 267.655 19.6979C267.062 19.6979 266.598 19.8715 266.261 20.2187C265.925 20.5591 265.702 21.0527 265.595 21.6995H269.493ZM265.554 23.5377C265.655 24.4227 265.921 25.0661 266.352 25.4678C266.783 25.8626 267.338 26.0601 268.018 26.0601C268.382 26.0601 268.695 26.0158 268.957 25.9273C269.22 25.8388 269.452 25.7401 269.654 25.6312C269.863 25.5222 270.051 25.4235 270.22 25.335C270.395 25.2465 270.576 25.2022 270.765 25.2022C271.014 25.2022 271.202 25.2942 271.33 25.478L272.239 26.6115C271.916 26.986 271.566 27.2923 271.189 27.5306C270.819 27.7621 270.435 27.9459 270.038 28.0821C269.647 28.2114 269.254 28.2999 268.856 28.3476C268.466 28.4021 268.092 28.4293 267.735 28.4293C267.002 28.4293 266.312 28.3102 265.665 28.0719C265.026 27.8268 264.464 27.4659 263.979 26.9894C263.501 26.5128 263.121 25.9205 262.838 25.2125C262.562 24.5044 262.424 23.6806 262.424 22.7411C262.424 22.0331 262.542 21.3625 262.777 20.7293C263.02 20.0962 263.363 19.5413 263.807 19.0647C264.258 18.5882 264.8 18.2103 265.433 17.9312C266.073 17.652 266.793 17.5125 267.594 17.5125C268.288 17.5125 268.92 17.6214 269.493 17.8393C270.072 18.0571 270.566 18.3737 270.977 18.789C271.394 19.2043 271.717 19.7149 271.946 20.3208C272.182 20.9199 272.3 21.6007 272.3 22.3633C272.3 22.6015 272.29 22.7956 272.27 22.9454C272.249 23.0951 272.212 23.2143 272.158 23.3028C272.105 23.3913 272.031 23.4526 271.936 23.4866C271.849 23.5206 271.734 23.5377 271.593 23.5377H265.554Z" fill="#333333"/>
<path d="M276.795 19.3098C277.118 18.7379 277.488 18.2886 277.905 17.9618C278.33 17.635 278.814 17.4716 279.36 17.4716C279.831 17.4716 280.215 17.584 280.511 17.8086L280.309 20.137C280.275 20.2868 280.218 20.3889 280.137 20.4434C280.063 20.4978 279.959 20.5251 279.824 20.5251C279.77 20.5251 279.7 20.5217 279.612 20.5149C279.525 20.508 279.434 20.5012 279.339 20.4944C279.245 20.4808 279.148 20.4706 279.047 20.4638C278.952 20.4502 278.865 20.4434 278.784 20.4434C278.326 20.4434 277.959 20.5659 277.683 20.811C277.414 21.0561 277.185 21.3965 276.997 21.8322V28.2659H273.866V17.6759H275.724C275.879 17.6759 276.007 17.6895 276.108 17.7167C276.216 17.7439 276.303 17.7882 276.371 17.8495C276.445 17.9039 276.498 17.9788 276.532 18.0741C276.573 18.1695 276.606 18.2852 276.633 18.4214L276.795 19.3098Z" fill="#333333"/>
<path d="M288.232 19.994C288.152 20.1234 288.064 20.2153 287.97 20.2698C287.882 20.3242 287.768 20.3515 287.627 20.3515C287.478 20.3515 287.33 20.3208 287.182 20.2595C287.034 20.1915 286.873 20.12 286.698 20.0451C286.529 19.9702 286.337 19.9021 286.122 19.8408C285.906 19.7728 285.661 19.7387 285.385 19.7387C284.988 19.7387 284.681 19.817 284.466 19.9736C284.257 20.1234 284.153 20.3344 284.153 20.6068C284.153 20.8042 284.22 20.9676 284.355 21.0969C284.496 21.2263 284.681 21.342 284.91 21.4442C285.139 21.5395 285.398 21.6314 285.688 21.7199C285.977 21.8084 286.273 21.9071 286.576 22.016C286.879 22.125 287.175 22.2543 287.465 22.4041C287.754 22.5471 288.014 22.7275 288.242 22.9454C288.471 23.1564 288.653 23.4151 288.788 23.7215C288.929 24.0278 289 24.3955 289 24.8244C289 25.3486 288.906 25.832 288.717 26.2745C288.529 26.717 288.246 27.0983 287.869 27.4183C287.499 27.7383 287.037 27.9868 286.485 28.1638C285.94 28.3408 285.311 28.4293 284.597 28.4293C284.24 28.4293 283.884 28.3953 283.527 28.3272C283.17 28.2591 282.823 28.1672 282.487 28.0514C282.157 27.9357 281.85 27.7995 281.568 27.643C281.285 27.4796 281.043 27.306 280.841 27.1221L281.568 25.9579C281.648 25.8218 281.749 25.7163 281.871 25.6414C281.999 25.5597 282.16 25.5188 282.355 25.5188C282.537 25.5188 282.699 25.5597 282.84 25.6414C282.988 25.7231 283.146 25.8116 283.315 25.9069C283.483 26.0022 283.678 26.0907 283.9 26.1724C284.129 26.2541 284.415 26.2949 284.759 26.2949C285.001 26.2949 285.206 26.2711 285.375 26.2235C285.543 26.169 285.678 26.0975 285.779 26.009C285.88 25.9205 285.954 25.8218 286.001 25.7129C286.048 25.6039 286.071 25.4916 286.071 25.3758C286.071 25.1648 286.001 24.9912 285.859 24.855C285.718 24.7189 285.533 24.6031 285.304 24.5078C285.075 24.4057 284.813 24.3138 284.516 24.2321C284.227 24.1436 283.931 24.0449 283.628 23.9359C283.325 23.827 283.025 23.6976 282.729 23.5479C282.44 23.3913 282.18 23.1972 281.951 22.9658C281.723 22.7275 281.537 22.4381 281.396 22.0977C281.255 21.7573 281.184 21.3454 281.184 20.8621C281.184 20.4127 281.268 19.9872 281.436 19.5855C281.611 19.1771 281.871 18.8196 282.214 18.5133C282.557 18.2069 282.988 17.9652 283.507 17.7882C284.025 17.6044 284.631 17.5125 285.324 17.5125C285.701 17.5125 286.065 17.5465 286.415 17.6146C286.772 17.6827 287.105 17.778 287.414 17.9005C287.724 18.0231 288.007 18.1695 288.263 18.3397C288.519 18.5031 288.744 18.6835 288.939 18.8809L288.232 19.994Z" fill="#333333"/>
<path d="M140.652 40.7621C140.616 40.8215 140.579 40.867 140.539 40.8987C140.5 40.9264 140.448 40.9402 140.385 40.9402C140.318 40.9402 140.238 40.9066 140.147 40.8393C140.06 40.772 139.948 40.6988 139.809 40.6197C139.674 40.5366 139.51 40.4614 139.316 40.3941C139.126 40.3268 138.895 40.2932 138.622 40.2932C138.365 40.2932 138.137 40.3288 137.939 40.4C137.741 40.4673 137.575 40.5603 137.441 40.679C137.31 40.7977 137.211 40.9382 137.144 41.1005C137.077 41.2588 137.043 41.4309 137.043 41.6169C137.043 41.8543 137.1 42.0522 137.215 42.2105C137.334 42.3648 137.488 42.4974 137.678 42.6082C137.872 42.719 138.09 42.8159 138.331 42.899C138.576 42.9782 138.826 43.0613 139.079 43.1483C139.336 43.2354 139.585 43.3343 139.827 43.4451C140.072 43.552 140.29 43.6885 140.48 43.8547C140.674 44.0209 140.828 44.2247 140.943 44.4661C141.061 44.7075 141.121 45.0043 141.121 45.3565C141.121 45.7284 141.058 46.0786 140.931 46.4071C140.804 46.7316 140.618 47.0145 140.373 47.2559C140.132 47.4973 139.833 47.6873 139.477 47.8258C139.124 47.9643 138.723 48.0335 138.272 48.0335C137.722 48.0335 137.219 47.9346 136.764 47.7367C136.313 47.5349 135.927 47.2638 135.606 46.9235L135.939 46.3774C135.971 46.3339 136.008 46.2983 136.052 46.2706C136.099 46.2389 136.151 46.2231 136.206 46.2231C136.289 46.2231 136.384 46.2686 136.491 46.3596C136.598 46.4467 136.73 46.5436 136.889 46.6505C137.051 46.7573 137.245 46.8562 137.47 46.9473C137.7 47.0343 137.979 47.0778 138.307 47.0778C138.58 47.0778 138.824 47.0403 139.037 46.9651C139.251 46.8899 139.431 46.785 139.578 46.6505C139.728 46.512 139.843 46.3477 139.922 46.1578C140.001 45.9678 140.041 45.7561 140.041 45.5227C140.041 45.2654 139.981 45.0557 139.862 44.8935C139.748 44.7273 139.595 44.5888 139.405 44.478C139.215 44.3672 138.998 44.2742 138.752 44.199C138.511 44.1198 138.262 44.0407 138.005 43.9615C137.751 43.8784 137.502 43.7835 137.257 43.6766C137.015 43.5698 136.8 43.4313 136.61 43.2611C136.42 43.0909 136.265 42.8792 136.147 42.626C136.032 42.3688 135.974 42.0522 135.974 41.6762C135.974 41.3755 136.032 41.0846 136.147 40.8037C136.265 40.5227 136.435 40.2734 136.657 40.0558C136.879 39.8381 137.152 39.664 137.476 39.5334C137.805 39.4028 138.181 39.3375 138.604 39.3375C139.079 39.3375 139.512 39.4127 139.904 39.5631C140.296 39.7135 140.638 39.9311 140.931 40.216L140.652 40.7621Z" fill="#5A5C6A"/>
<path d="M147.95 42.994C147.919 43.0375 147.887 43.0712 147.855 43.0949C147.824 43.1187 147.778 43.1305 147.719 43.1305C147.659 43.1305 147.594 43.1068 147.523 43.0593C147.456 43.0078 147.369 42.9524 147.262 42.8931C147.155 42.8337 147.024 42.7803 146.87 42.7328C146.72 42.6814 146.534 42.6557 146.312 42.6557C146.019 42.6557 145.76 42.7091 145.534 42.8159C145.309 42.9188 145.119 43.0692 144.965 43.267C144.814 43.4649 144.699 43.7043 144.62 43.9853C144.545 44.2662 144.507 44.5808 144.507 44.9291C144.507 45.2931 144.549 45.6176 144.632 45.9026C144.715 46.1835 144.832 46.421 144.982 46.6149C145.133 46.8048 145.315 46.9512 145.528 47.0541C145.746 47.153 145.989 47.2025 146.259 47.2025C146.516 47.2025 146.727 47.1728 146.894 47.1135C147.06 47.0501 147.198 46.9809 147.309 46.9057C147.42 46.8305 147.511 46.7632 147.582 46.7039C147.653 46.6406 147.725 46.6089 147.796 46.6089C147.887 46.6089 147.954 46.6426 147.998 46.7098L148.295 47.0957C148.033 47.4162 147.707 47.6516 147.315 47.802C146.923 47.9484 146.51 48.0216 146.075 48.0216C145.699 48.0216 145.348 47.9524 145.024 47.8139C144.703 47.6754 144.424 47.4755 144.187 47.2144C143.95 46.9492 143.762 46.6247 143.623 46.2409C143.489 45.857 143.421 45.4198 143.421 44.9291C143.421 44.4819 143.483 44.0684 143.605 43.6885C143.732 43.3086 143.914 42.9821 144.151 42.7091C144.393 42.4321 144.69 42.2164 145.042 42.0621C145.394 41.9077 145.798 41.8306 146.253 41.8306C146.672 41.8306 147.044 41.8998 147.369 42.0383C147.693 42.1729 147.98 42.3648 148.229 42.6141L147.95 42.994Z" fill="#5A5C6A"/>
<path d="M150.815 47.9385V39.1951H151.871V42.7328C152.129 42.4598 152.414 42.2421 152.726 42.0799C153.039 41.9137 153.399 41.8306 153.807 41.8306C154.135 41.8306 154.424 41.886 154.673 41.9968C154.926 42.1036 155.136 42.258 155.302 42.4598C155.473 42.6576 155.601 42.897 155.688 43.178C155.775 43.459 155.819 43.7696 155.819 44.1099V47.9385H154.762V44.1099C154.762 43.6549 154.657 43.3027 154.448 43.0534C154.242 42.8001 153.925 42.6735 153.498 42.6735C153.185 42.6735 152.892 42.7487 152.619 42.899C152.35 43.0494 152.101 43.2532 151.871 43.5104V47.9385H150.815Z" fill="#5A5C6A"/>
<path d="M161.27 41.8306C161.709 41.8306 162.105 41.9038 162.457 42.0502C162.813 42.1966 163.114 42.4044 163.359 42.6735C163.609 42.9426 163.798 43.269 163.929 43.6529C164.064 44.0328 164.131 44.4582 164.131 44.9291C164.131 45.4039 164.064 45.8313 163.929 46.2112C163.798 46.5911 163.609 46.9156 163.359 47.1847C163.114 47.4538 162.813 47.6615 162.457 47.808C162.105 47.9504 161.709 48.0216 161.27 48.0216C160.831 48.0216 160.433 47.9504 160.077 47.808C159.725 47.6615 159.424 47.4538 159.174 47.1847C158.925 46.9156 158.733 46.5911 158.599 46.2112C158.464 45.8313 158.397 45.4039 158.397 44.9291C158.397 44.4582 158.464 44.0328 158.599 43.6529C158.733 43.269 158.925 42.9426 159.174 42.6735C159.424 42.4044 159.725 42.1966 160.077 42.0502C160.433 41.9038 160.831 41.8306 161.27 41.8306ZM161.27 47.1966C161.863 47.1966 162.307 46.9987 162.599 46.603C162.892 46.2033 163.039 45.6473 163.039 44.935C163.039 44.2188 162.892 43.6608 162.599 43.2611C162.307 42.8614 161.863 42.6616 161.27 42.6616C160.969 42.6616 160.708 42.713 160.486 42.8159C160.265 42.9188 160.079 43.0672 159.928 43.2611C159.782 43.455 159.671 43.6944 159.596 43.9793C159.525 44.2603 159.489 44.5789 159.489 44.935C159.489 45.2912 159.525 45.6097 159.596 45.8907C159.671 46.1716 159.782 46.4091 159.928 46.603C160.079 46.7929 160.265 46.9393 160.486 47.0422C160.708 47.1451 160.969 47.1966 161.27 47.1966Z" fill="#5A5C6A"/>
<path d="M169.291 41.8306C169.73 41.8306 170.126 41.9038 170.478 42.0502C170.834 42.1966 171.135 42.4044 171.38 42.6735C171.63 42.9426 171.82 43.269 171.95 43.6529C172.085 44.0328 172.152 44.4582 172.152 44.9291C172.152 45.4039 172.085 45.8313 171.95 46.2112C171.82 46.5911 171.63 46.9156 171.38 47.1847C171.135 47.4538 170.834 47.6615 170.478 47.808C170.126 47.9504 169.73 48.0216 169.291 48.0216C168.852 48.0216 168.454 47.9504 168.098 47.808C167.746 47.6615 167.445 47.4538 167.196 47.1847C166.946 46.9156 166.754 46.5911 166.62 46.2112C166.485 45.8313 166.418 45.4039 166.418 44.9291C166.418 44.4582 166.485 44.0328 166.62 43.6529C166.754 43.269 166.946 42.9426 167.196 42.6735C167.445 42.4044 167.746 42.1966 168.098 42.0502C168.454 41.9038 168.852 41.8306 169.291 41.8306ZM169.291 47.1966C169.885 47.1966 170.328 46.9987 170.621 46.603C170.914 46.2033 171.06 45.6473 171.06 44.935C171.06 44.2188 170.914 43.6608 170.621 43.2611C170.328 42.8614 169.885 42.6616 169.291 42.6616C168.99 42.6616 168.729 42.713 168.508 42.8159C168.286 42.9188 168.1 43.0672 167.95 43.2611C167.803 43.455 167.692 43.6944 167.617 43.9793C167.546 44.2603 167.51 44.5789 167.51 44.935C167.51 45.2912 167.546 45.6097 167.617 45.8907C167.692 46.1716 167.803 46.4091 167.95 46.603C168.1 46.7929 168.286 46.9393 168.508 47.0422C168.729 47.1451 168.99 47.1966 169.291 47.1966Z" fill="#5A5C6A"/>
<path d="M176.054 39.1951V47.9385H174.997V39.1951H176.054Z" fill="#5A5C6A"/>
<path d="M185.494 41.8306C185.934 41.8306 186.329 41.9038 186.682 42.0502C187.038 42.1966 187.339 42.4044 187.584 42.6735C187.833 42.9426 188.023 43.269 188.154 43.6529C188.288 44.0328 188.356 44.4582 188.356 44.9291C188.356 45.4039 188.288 45.8313 188.154 46.2112C188.023 46.5911 187.833 46.9156 187.584 47.1847C187.339 47.4538 187.038 47.6615 186.682 47.808C186.329 47.9504 185.934 48.0216 185.494 48.0216C185.055 48.0216 184.658 47.9504 184.301 47.808C183.949 47.6615 183.648 47.4538 183.399 47.1847C183.15 46.9156 182.958 46.5911 182.823 46.2112C182.689 45.8313 182.622 45.4039 182.622 44.9291C182.622 44.4582 182.689 44.0328 182.823 43.6529C182.958 43.269 183.15 42.9426 183.399 42.6735C183.648 42.4044 183.949 42.1966 184.301 42.0502C184.658 41.9038 185.055 41.8306 185.494 41.8306ZM185.494 47.1966C186.088 47.1966 186.531 46.9987 186.824 46.603C187.117 46.2033 187.263 45.6473 187.263 44.935C187.263 44.2188 187.117 43.6608 186.824 43.2611C186.531 42.8614 186.088 42.6616 185.494 42.6616C185.194 42.6616 184.933 42.713 184.711 42.8159C184.489 42.9188 184.303 43.0672 184.153 43.2611C184.007 43.455 183.896 43.6944 183.821 43.9793C183.749 44.2603 183.714 44.5789 183.714 44.935C183.714 45.2912 183.749 45.6097 183.821 45.8907C183.896 46.1716 184.007 46.4091 184.153 46.603C184.303 46.7929 184.489 46.9393 184.711 47.0422C184.933 47.1451 185.194 47.1966 185.494 47.1966Z" fill="#5A5C6A"/>
<path d="M191.319 47.9385V42.8278L190.655 42.7506C190.572 42.7308 190.502 42.7012 190.447 42.6616C190.395 42.6181 190.37 42.5567 190.37 42.4776V42.0443H191.319V41.4626C191.319 41.1183 191.367 40.8136 191.462 40.5484C191.561 40.2793 191.699 40.0538 191.877 39.8718C192.059 39.6858 192.277 39.5453 192.53 39.4503C192.784 39.3553 193.069 39.3078 193.385 39.3078C193.654 39.3078 193.904 39.3474 194.133 39.4266L194.109 39.9549C194.105 40.034 194.072 40.0815 194.008 40.0973C193.945 40.1131 193.856 40.1211 193.741 40.1211H193.557C193.375 40.1211 193.209 40.1448 193.059 40.1923C192.912 40.2398 192.786 40.3169 192.679 40.4238C192.572 40.5306 192.489 40.6711 192.429 40.8452C192.374 41.0193 192.346 41.235 192.346 41.4922V42.0443H194.086V42.81H192.382V47.9385H191.319Z" fill="#5A5C6A"/>
<path d="M205.634 39.4325V40.3704H201.55V43.1958H204.856V44.0981H201.55V47.0007H205.634V47.9385H200.393V39.4325H205.634Z" fill="#5A5C6A"/>
<path d="M209.956 44.8578L207.932 41.9255H208.947C209.034 41.9255 209.097 41.9394 209.137 41.9671C209.176 41.9948 209.212 42.0344 209.244 42.0858L210.716 44.3414C210.751 44.2306 210.803 44.1198 210.87 44.009L212.164 42.1096C212.204 42.0542 212.243 42.0106 212.283 41.979C212.322 41.9434 212.372 41.9255 212.431 41.9255H213.405L211.381 44.7985L213.488 47.9385H212.473C212.386 47.9385 212.316 47.9168 212.265 47.8732C212.217 47.8258 212.178 47.7743 212.146 47.7189L210.633 45.3624C210.605 45.4772 210.563 45.58 210.508 45.6711L209.107 47.7189C209.068 47.7743 209.024 47.8258 208.977 47.8732C208.933 47.9168 208.872 47.9385 208.793 47.9385H207.849L209.956 44.8578Z" fill="#5A5C6A"/>
<path d="M219.698 42.994C219.667 43.0375 219.635 43.0712 219.603 43.0949C219.572 43.1187 219.526 43.1305 219.467 43.1305C219.407 43.1305 219.342 43.1068 219.271 43.0593C219.204 43.0078 219.117 42.9524 219.01 42.8931C218.903 42.8337 218.772 42.7803 218.618 42.7328C218.468 42.6814 218.282 42.6557 218.06 42.6557C217.767 42.6557 217.508 42.7091 217.282 42.8159C217.057 42.9188 216.867 43.0692 216.712 43.267C216.562 43.4649 216.447 43.7043 216.368 43.9853C216.293 44.2662 216.255 44.5808 216.255 44.9291C216.255 45.2931 216.297 45.6176 216.38 45.9026C216.463 46.1835 216.58 46.421 216.73 46.6149C216.881 46.8048 217.063 46.9512 217.276 47.0541C217.494 47.153 217.737 47.2025 218.007 47.2025C218.264 47.2025 218.475 47.1728 218.642 47.1135C218.808 47.0501 218.946 46.9809 219.057 46.9057C219.168 46.8305 219.259 46.7632 219.33 46.7039C219.401 46.6406 219.473 46.6089 219.544 46.6089C219.635 46.6089 219.702 46.6426 219.746 46.7098L220.042 47.0957C219.781 47.4162 219.455 47.6516 219.063 47.802C218.671 47.9484 218.258 48.0216 217.823 48.0216C217.447 48.0216 217.096 47.9524 216.772 47.8139C216.451 47.6754 216.172 47.4755 215.935 47.2144C215.697 46.9492 215.51 46.6247 215.371 46.2409C215.236 45.857 215.169 45.4198 215.169 44.9291C215.169 44.4819 215.231 44.0684 215.353 43.6885C215.48 43.3086 215.662 42.9821 215.899 42.7091C216.141 42.4321 216.437 42.2164 216.79 42.0621C217.142 41.9077 217.545 41.8306 218.001 41.8306C218.42 41.8306 218.792 41.8998 219.117 42.0383C219.441 42.1729 219.728 42.3648 219.977 42.6141L219.698 42.994Z" fill="#5A5C6A"/>
<path d="M224.943 41.8306C225.303 41.8306 225.636 41.8919 225.94 42.0146C226.245 42.1333 226.508 42.3074 226.73 42.5369C226.951 42.7625 227.124 43.0435 227.246 43.3798C227.373 43.7122 227.436 44.0921 227.436 44.5195C227.436 44.6857 227.418 44.7965 227.383 44.8519C227.347 44.9073 227.28 44.935 227.181 44.935H223.18C223.188 45.3149 223.239 45.6453 223.334 45.9263C223.429 46.2073 223.56 46.4427 223.726 46.6327C223.892 46.8187 224.09 46.9591 224.32 47.0541C224.549 47.1451 224.807 47.1906 225.091 47.1906C225.357 47.1906 225.584 47.161 225.774 47.1016C225.968 47.0383 226.134 46.971 226.273 46.8998C226.411 46.8285 226.526 46.7632 226.617 46.7039C226.712 46.6406 226.793 46.6089 226.86 46.6089C226.947 46.6089 227.015 46.6426 227.062 46.7098L227.359 47.0957C227.228 47.2539 227.072 47.3924 226.89 47.5112C226.708 47.6259 226.512 47.7209 226.302 47.7961C226.097 47.8713 225.883 47.9267 225.661 47.9623C225.44 48.0019 225.22 48.0216 225.002 48.0216C224.587 48.0216 224.203 47.9524 223.851 47.8139C223.503 47.6714 223.2 47.4657 222.943 47.1966C222.689 46.9235 222.492 46.5872 222.349 46.1875C222.207 45.7878 222.135 45.3288 222.135 44.8104C222.135 44.3909 222.199 43.9991 222.325 43.6351C222.456 43.271 222.642 42.9564 222.883 42.6913C223.125 42.4222 223.42 42.2124 223.768 42.0621C224.116 41.9077 224.508 41.8306 224.943 41.8306ZM224.967 42.6082C224.456 42.6082 224.055 42.7566 223.762 43.0534C223.469 43.3462 223.287 43.7538 223.216 44.2761H226.486C226.486 44.0308 226.453 43.8072 226.385 43.6054C226.318 43.3996 226.219 43.2235 226.089 43.0771C225.958 42.9267 225.798 42.812 225.608 42.7328C225.422 42.6497 225.208 42.6082 224.967 42.6082Z" fill="#5A5C6A"/>
<path d="M231.388 39.1951V47.9385H230.332V39.1951H231.388Z" fill="#5A5C6A"/>
<path d="M235.85 39.1951V47.9385H234.794V39.1951H235.85Z" fill="#5A5C6A"/>
<path d="M241.517 41.8306C241.878 41.8306 242.21 41.8919 242.515 42.0146C242.819 42.1333 243.083 42.3074 243.304 42.5369C243.526 42.7625 243.698 43.0435 243.821 43.3798C243.947 43.7122 244.011 44.0921 244.011 44.5195C244.011 44.6857 243.993 44.7965 243.957 44.8519C243.921 44.9073 243.854 44.935 243.755 44.935H239.755C239.762 45.3149 239.814 45.6453 239.909 45.9263C240.004 46.2073 240.134 46.4427 240.301 46.6327C240.467 46.8187 240.665 46.9591 240.894 47.0541C241.124 47.1451 241.381 47.1906 241.666 47.1906C241.931 47.1906 242.159 47.161 242.348 47.1016C242.542 47.0383 242.709 46.971 242.847 46.8998C242.986 46.8285 243.1 46.7632 243.191 46.7039C243.286 46.6406 243.367 46.6089 243.435 46.6089C243.522 46.6089 243.589 46.6426 243.637 46.7098L243.933 47.0957C243.803 47.2539 243.646 47.3924 243.464 47.5112C243.282 47.6259 243.087 47.7209 242.877 47.7961C242.671 47.8713 242.457 47.9267 242.236 47.9623C242.014 48.0019 241.794 48.0216 241.577 48.0216C241.161 48.0216 240.777 47.9524 240.425 47.8139C240.077 47.6714 239.774 47.4657 239.517 47.1966C239.264 46.9235 239.066 46.5872 238.924 46.1875C238.781 45.7878 238.71 45.3288 238.71 44.8104C238.71 44.3909 238.773 43.9991 238.9 43.6351C239.03 43.271 239.216 42.9564 239.458 42.6913C239.699 42.4222 239.994 42.2124 240.342 42.0621C240.69 41.9077 241.082 41.8306 241.517 41.8306ZM241.541 42.6082C241.031 42.6082 240.629 42.7566 240.336 43.0534C240.043 43.3462 239.861 43.7538 239.79 44.2761H243.061C243.061 44.0308 243.027 43.8072 242.96 43.6054C242.893 43.3996 242.794 43.2235 242.663 43.0771C242.533 42.9267 242.372 42.812 242.182 42.7328C241.996 42.6497 241.783 42.6082 241.541 42.6082Z" fill="#5A5C6A"/>
<path d="M246.787 47.9385V41.9255H247.417C247.567 41.9255 247.662 41.9988 247.702 42.1452L247.785 42.7981C248.046 42.5092 248.337 42.2758 248.657 42.0977C248.982 41.9196 249.356 41.8306 249.779 41.8306C250.108 41.8306 250.396 41.886 250.646 41.9968C250.899 42.1036 251.109 42.258 251.275 42.4598C251.445 42.6576 251.574 42.897 251.661 43.178C251.748 43.459 251.791 43.7696 251.791 44.1099V47.9385H250.735V44.1099C250.735 43.6549 250.63 43.3027 250.42 43.0534C250.214 42.8001 249.898 42.6735 249.47 42.6735C249.158 42.6735 248.865 42.7487 248.592 42.899C248.323 43.0494 248.074 43.2532 247.844 43.5104V47.9385H246.787Z" fill="#5A5C6A"/>
<path d="M258.91 42.994C258.879 43.0375 258.847 43.0712 258.815 43.0949C258.784 43.1187 258.738 43.1305 258.679 43.1305C258.62 43.1305 258.554 43.1068 258.483 43.0593C258.416 43.0078 258.329 42.9524 258.222 42.8931C258.115 42.8337 257.984 42.7803 257.83 42.7328C257.68 42.6814 257.494 42.6557 257.272 42.6557C256.979 42.6557 256.72 42.7091 256.495 42.8159C256.269 42.9188 256.079 43.0692 255.925 43.267C255.774 43.4649 255.66 43.7043 255.58 43.9853C255.505 44.2662 255.468 44.5808 255.468 44.9291C255.468 45.2931 255.509 45.6176 255.592 45.9026C255.675 46.1835 255.792 46.421 255.942 46.6149C256.093 46.8048 256.275 46.9512 256.489 47.0541C256.706 47.153 256.95 47.2025 257.219 47.2025C257.476 47.2025 257.688 47.1728 257.854 47.1135C258.02 47.0501 258.159 46.9809 258.269 46.9057C258.38 46.8305 258.471 46.7632 258.542 46.7039C258.614 46.6406 258.685 46.6089 258.756 46.6089C258.847 46.6089 258.914 46.6426 258.958 46.7098L259.255 47.0957C258.993 47.4162 258.667 47.6516 258.275 47.802C257.883 47.9484 257.47 48.0216 257.035 48.0216C256.659 48.0216 256.309 47.9524 255.984 47.8139C255.663 47.6754 255.385 47.4755 255.147 47.2144C254.91 46.9492 254.722 46.6247 254.583 46.2409C254.449 45.857 254.381 45.4198 254.381 44.9291C254.381 44.4819 254.443 44.0684 254.565 43.6885C254.692 43.3086 254.874 42.9821 255.111 42.7091C255.353 42.4321 255.65 42.2164 256.002 42.0621C256.354 41.9077 256.758 41.8306 257.213 41.8306C257.632 41.8306 258.004 41.8998 258.329 42.0383C258.653 42.1729 258.94 42.3648 259.189 42.6141L258.91 42.994Z" fill="#5A5C6A"/>
<path d="M264.155 41.8306C264.515 41.8306 264.848 41.8919 265.152 42.0146C265.457 42.1333 265.72 42.3074 265.942 42.5369C266.164 42.7625 266.336 43.0435 266.458 43.3798C266.585 43.7122 266.648 44.0921 266.648 44.5195C266.648 44.6857 266.63 44.7965 266.595 44.8519C266.559 44.9073 266.492 44.935 266.393 44.935H262.392C262.4 45.3149 262.452 45.6453 262.547 45.9263C262.642 46.2073 262.772 46.4427 262.938 46.6327C263.105 46.8187 263.302 46.9591 263.532 47.0541C263.762 47.1451 264.019 47.1906 264.304 47.1906C264.569 47.1906 264.796 47.161 264.986 47.1016C265.18 47.0383 265.346 46.971 265.485 46.8998C265.623 46.8285 265.738 46.7632 265.829 46.7039C265.924 46.6406 266.005 46.6089 266.073 46.6089C266.16 46.6089 266.227 46.6426 266.274 46.7098L266.571 47.0957C266.441 47.2539 266.284 47.3924 266.102 47.5112C265.92 47.6259 265.724 47.7209 265.515 47.7961C265.309 47.8713 265.095 47.9267 264.874 47.9623C264.652 48.0019 264.432 48.0216 264.215 48.0216C263.799 48.0216 263.415 47.9524 263.063 47.8139C262.715 47.6714 262.412 47.4657 262.155 47.1966C261.902 46.9235 261.704 46.5872 261.561 46.1875C261.419 45.7878 261.348 45.3288 261.348 44.8104C261.348 44.3909 261.411 43.9991 261.538 43.6351C261.668 43.271 261.854 42.9564 262.096 42.6913C262.337 42.4222 262.632 42.2124 262.98 42.0621C263.328 41.9077 263.72 41.8306 264.155 41.8306ZM264.179 42.6082C263.669 42.6082 263.267 42.7566 262.974 43.0534C262.681 43.3462 262.499 43.7538 262.428 44.2761H265.699C265.699 44.0308 265.665 43.8072 265.598 43.6054C265.53 43.3996 265.431 43.2235 265.301 43.0771C265.17 42.9267 265.01 42.812 264.82 42.7328C264.634 42.6497 264.42 42.6082 264.179 42.6082Z" fill="#5A5C6A"/>
<path fill-rule="evenodd" clip-rule="evenodd" d="M118 62V0H119V62H118Z" fill="#ECF4F9"/>
<g clip-path="url(#clip0_1_553)">
<g style="mix-blend-mode:multiply">
<g style="mix-blend-mode:multiply">
<path d="M66.6922 44.5509C66.3139 45.9302 65.41 47.1088 64.1724 47.8369C62.9347 48.5649 61.4604 48.7852 60.0622 48.4509L41.4276 44.1999C40.0371 43.8153 38.851 42.9092 38.1192 41.6725C37.3875 40.4358 37.1671 38.965 37.5045 37.5699L42.016 19.0449C42.3763 17.6545 43.2768 16.4631 44.5197 15.7319C45.7627 15.0007 47.2467 14.7896 48.646 15.1449L67.2806 19.5909C68.6711 19.9755 69.8572 20.8816 70.589 22.1184C71.3207 23.3551 71.5411 24.8259 71.2037 26.2209L66.6922 44.5509Z" fill="#09C08E"/>
</g>
</g>
<g style="mix-blend-mode:multiply">
<g style="mix-blend-mode:multiply">
<path d="M29.0016 14.3965L11.1167 21.0759C8.25683 22.1439 6.80943 25.3145 7.8838 28.1575L14.6027 45.9372C15.6771 48.7802 18.8664 50.2191 21.7263 49.1511L39.6112 42.4717C42.471 41.4036 43.9184 38.2331 42.8441 35.3901L36.1251 17.6103C35.0508 14.7673 31.8614 13.3284 29.0016 14.3965Z" fill="#FFD751"/>
</g>
</g>
<g style="mix-blend-mode:multiply">
<g style="mix-blend-mode:multiply">
<path d="M87.6415 48.334C87.2103 48.9316 86.663 49.4371 86.0319 49.8207C85.4008 50.2043 84.6986 50.4581 83.9671 50.5672C83.2355 50.6763 82.4894 50.6384 81.7728 50.4558C81.0563 50.2732 80.3838 49.9495 79.7953 49.504L64.3776 38.194C63.775 37.7659 63.2658 37.2211 62.8805 36.5924C62.4952 35.9636 62.2417 35.2638 62.1355 34.5352C62.0292 33.8066 62.0722 33.0641 62.262 32.3524C62.4518 31.6407 62.7845 30.9746 63.2399 30.394L74.5384 15.223C74.973 14.6298 75.5218 14.1283 76.153 13.7478C76.7842 13.3672 77.4852 13.1152 78.2153 13.0063C78.9453 12.8975 79.6898 12.9339 80.4056 13.1136C81.1213 13.2933 81.794 13.6126 82.3845 14.053L97.8022 25.363C98.3947 25.7983 98.8951 26.3454 99.2749 26.973C99.6547 27.6006 99.9065 28.2964 100.016 29.0207C100.125 29.745 100.09 30.4836 99.9119 31.1943C99.734 31.9051 99.4171 32.574 98.9792 33.163L87.6415 48.334Z" fill="#0063A2"/>
</g>
</g>
</g>
<defs>
<clipPath id="clip0_1_553">
<rect width="102" height="39" fill="white" transform="translate(0 13)"/>
</clipPath>
</defs>
</svg>
